<svg width="2560.000000" height="1440.000000" viewBox="0 0 2560 1440" fill="none" xmlns="http://www.w3.org/2000/svg" xmlns:xlink="http://www.w3.org/1999/xlink">
	<desc>
			Created with Pixso.
	</desc>
	<defs>
		<clipPath id="clip10_364">
			<rect id="画板 1" width="2560.000000" height="1440.000000" fill="white" fill-opacity="0"/>
		</clipPath>
	</defs>
	<rect id="画板 1" width="2560.000000" height="1440.000000" fill="#000000" fill-opacity="0"/>
	<g clip-path="url(#clip10_364)">
		<line id="直线 33" x1="853.333008" y1="0.000000" x2="853.333008" y2="1440.000000" stroke="#2194E3" stroke-opacity="0" stroke-width="1.000000"/>
		<line id="直线 34" x1="1706.666504" y1="0.000000" x2="1706.666504" y2="1440.000000" stroke="#2194E3" stroke-opacity="0" stroke-width="1.000000"/>
		<line id="直线 35" x1="0.000000" y1="480.000000" x2="2560.000000" y2="480.000000" stroke="#2194E3" stroke-opacity="0" stroke-width="1.000000"/>
		<line id="直线 36" x1="0.000000" y1="960.000000" x2="2560.000000" y2="960.000000" stroke="#2194E3" stroke-opacity="0" stroke-width="1.000000"/>
		<g style="mix-blend-mode:normal">
			<rect id="矩形 2" x="1018.000000" y="205.199219" rx="1.000000" width="13.000000" height="42.000000" fill="#FFFFFF" fill-opacity="0"/>
			<rect id="矩形 2" x="1018.500000" y="205.699219" rx="1.000000" width="12.000000" height="41.000000" stroke="#FF0000" stroke-opacity="1.000000" stroke-width="1.000000"/>
		</g>
		<g style="mix-blend-mode:normal">
			<ellipse id="Oval" rx="14.500000" ry="15.000000" transform="matrix(0 1 -1 0 1025 289.5)" fill="#2C407A" fill-opacity="0"/>
			<ellipse id="Oval" rx="14.500000" ry="15.000000" transform="matrix(0 1 -1 0 1025 289.5)" stroke="#01C5C5" stroke-opacity="1.000000" stroke-width="3.000000"/>
		</g>
		<g style="mix-blend-mode:normal">
			<ellipse id="Oval" rx="14.500000" ry="15.000000" transform="matrix(0 1 -1 0 1025 308.5)" fill="#2C407A" fill-opacity="0"/>
			<ellipse id="Oval" rx="14.500000" ry="15.000000" transform="matrix(0 1 -1 0 1025 308.5)" stroke="#01C5C5" stroke-opacity="1.000000" stroke-width="3.000000"/>
		</g>
		<g style="mix-blend-mode:normal">
			<path id="多边形 1" d="M1026.19 280.71L1030.09 286.93C1030.92 288.27 1029.96 290 1028.39 290L1020.61 290C1019.04 290 1018.08 288.27 1018.91 286.93L1022.8 280.71C1023.59 279.46 1025.41 279.46 1026.19 280.71Z" fill="#FFFFFF" fill-opacity="0" fill-rule="evenodd"/>
			<path id="多边形 1" d="M1026.19 280.71L1030.09 286.93C1030.92 288.27 1029.96 290 1028.39 290L1020.61 290C1019.04 290 1018.08 288.27 1018.91 286.93L1022.8 280.71C1023.59 279.46 1025.41 279.46 1026.19 280.71ZM1025.35 281.24L1029.24 287.47C1029.31 287.58 1029.36 287.69 1029.38 287.81C1029.39 287.87 1029.39 287.93 1029.39 287.98C1029.4 288.05 1029.39 288.11 1029.38 288.18C1029.36 288.28 1029.31 288.38 1029.27 288.48C1029.21 288.58 1029.15 288.66 1029.06 288.73C1029.02 288.78 1028.97 288.82 1028.91 288.85C1028.86 288.88 1028.81 288.91 1028.76 288.93C1028.65 288.97 1028.52 289 1028.39 289L1020.61 289C1020.48 289 1020.35 288.97 1020.24 288.93C1020.19 288.91 1020.14 288.88 1020.09 288.85C1020.03 288.82 1019.98 288.78 1019.93 288.73C1019.85 288.66 1019.79 288.58 1019.73 288.48C1019.68 288.38 1019.64 288.28 1019.62 288.18C1019.61 288.11 1019.6 288.05 1019.61 287.98C1019.61 287.93 1019.61 287.87 1019.62 287.81C1019.64 287.69 1019.69 287.58 1019.76 287.47L1023.65 281.24C1023.72 281.14 1023.79 281.05 1023.88 280.98C1023.93 280.94 1023.97 280.91 1024.03 280.89C1024.07 280.85 1024.14 280.83 1024.19 280.81C1024.3 280.78 1024.4 280.77 1024.5 280.77C1024.6 280.77 1024.69 280.78 1024.8 280.81C1024.86 280.83 1024.92 280.85 1024.97 280.89C1025.03 280.91 1025.06 280.94 1025.12 280.98C1025.21 281.05 1025.28 281.14 1025.35 281.24Z" fill="#FF0000" fill-opacity="1.000000" fill-rule="evenodd"/>
		</g>
		<g style="mix-blend-mode:normal">
			<path id="Y" d="M1026.06 319L1024.85 319L1024.85 315.29L1021.99 309.45L1023.27 309.45L1024.49 312.16C1024.81 312.86 1025.09 313.52 1025.43 314.24L1025.48 314.24C1025.81 313.52 1026.15 312.86 1026.43 312.16L1027.67 309.45L1028.92 309.45L1026.06 315.29L1026.06 319Z" fill="#FE0000" fill-opacity="1.000000" fill-rule="evenodd"/>
		</g>
		<g style="mix-blend-mode:normal">
			<ellipse id="Oval" rx="14.500000" ry="15.000000" transform="matrix(0 1 -1 0 1242 586.5)" fill="#2C407A" fill-opacity="0"/>
			<ellipse id="Oval" rx="14.500000" ry="15.000000" transform="matrix(0 1 -1 0 1242 586.5)" stroke="#01C5C5" stroke-opacity="1.000000" stroke-width="3.000000"/>
		</g>
		<g style="mix-blend-mode:normal">
			<ellipse id="Oval" rx="14.500000" ry="15.000000" transform="matrix(0 1 -1 0 1242 605.5)" fill="#2C407A" fill-opacity="0"/>
			<ellipse id="Oval" rx="14.500000" ry="15.000000" transform="matrix(0 1 -1 0 1242 605.5)" stroke="#01C5C5" stroke-opacity="1.000000" stroke-width="3.000000"/>
		</g>
		<g style="mix-blend-mode:normal">
			<path id="多边形 1" d="M1243.19 577.71L1247.09 583.93C1247.92 585.27 1246.96 587 1245.39 587L1237.61 587C1236.04 587 1235.07 585.27 1235.91 583.93L1239.8 577.71C1240.59 576.46 1242.41 576.46 1243.19 577.71Z" fill="#FFFFFF" fill-opacity="0" fill-rule="evenodd"/>
			<path id="多边形 1" d="M1243.19 577.71L1247.09 583.93C1247.92 585.27 1246.96 587 1245.39 587L1237.61 587C1236.04 587 1235.07 585.27 1235.91 583.93L1239.8 577.71C1240.59 576.46 1242.41 576.46 1243.19 577.71ZM1242.35 578.24L1246.24 584.47C1246.31 584.58 1246.36 584.69 1246.38 584.81C1246.39 584.87 1246.39 584.93 1246.39 584.98C1246.4 585.05 1246.39 585.11 1246.38 585.18C1246.36 585.28 1246.31 585.38 1246.27 585.48C1246.21 585.58 1246.15 585.66 1246.06 585.73C1246.02 585.78 1245.97 585.82 1245.91 585.85C1245.86 585.88 1245.81 585.91 1245.76 585.93C1245.65 585.97 1245.52 586 1245.39 586L1237.61 586C1237.48 586 1237.35 585.97 1237.24 585.93C1237.18 585.91 1237.14 585.88 1237.09 585.85C1237.03 585.82 1236.98 585.78 1236.93 585.73C1236.85 585.66 1236.79 585.58 1236.73 585.48C1236.68 585.38 1236.64 585.28 1236.62 585.18C1236.61 585.11 1236.6 585.05 1236.61 584.98C1236.61 584.93 1236.61 584.87 1236.62 584.81C1236.64 584.69 1236.68 584.58 1236.76 584.47L1240.65 578.24C1240.72 578.14 1240.79 578.05 1240.88 577.98C1240.93 577.94 1240.97 577.91 1241.03 577.89C1241.07 577.85 1241.14 577.83 1241.19 577.81C1241.3 577.78 1241.4 577.77 1241.5 577.77C1241.6 577.77 1241.69 577.78 1241.8 577.81C1241.86 577.83 1241.92 577.85 1241.97 577.89C1242.03 577.91 1242.06 577.94 1242.12 577.98C1242.21 578.05 1242.28 578.14 1242.35 578.24Z" fill="#FF0000" fill-opacity="1.000000" fill-rule="evenodd"/>
		</g>
		<g style="mix-blend-mode:normal">
			<path id="Y" d="M1243.06 614L1241.85 614L1241.85 610.29L1238.99 604.45L1240.27 604.45L1241.49 607.16C1241.81 607.86 1242.09 608.52 1242.43 609.24L1242.48 609.24C1242.81 608.52 1243.15 607.86 1243.43 607.16L1244.67 604.45L1245.92 604.45L1243.06 610.29L1243.06 614Z" fill="#FE0000" fill-opacity="1.000000" fill-rule="evenodd"/>
		</g>
		<g style="mix-blend-mode:normal">
			<ellipse id="Oval" rx="14.500000" ry="15.000000" transform="matrix(0 1 -1 0 1142 445.5)" fill="#2C407A" fill-opacity="0"/>
			<ellipse id="Oval" rx="14.500000" ry="15.000000" transform="matrix(0 1 -1 0 1142 445.5)" stroke="#01C5C5" stroke-opacity="1.000000" stroke-width="3.000000"/>
		</g>
		<g style="mix-blend-mode:normal">
			<ellipse id="Oval" rx="14.500000" ry="15.000000" transform="matrix(0 1 -1 0 1142 464.5)" fill="#2C407A" fill-opacity="0"/>
			<ellipse id="Oval" rx="14.500000" ry="15.000000" transform="matrix(0 1 -1 0 1142 464.5)" stroke="#01C5C5" stroke-opacity="1.000000" stroke-width="3.000000"/>
		</g>
		<g style="mix-blend-mode:normal">
			<path id="直线 8" d="M1024.5 325L1024.5 577" stroke="#FF0000" stroke-opacity="1.000000" stroke-width="2.000000" stroke-linecap="round"/>
		</g>
		<g style="mix-blend-mode:normal">
			<line id="直线 9" x1="1024.500000" y1="244.699219" x2="1024.500000" y2="271.699219" stroke="#FF0000" stroke-opacity="1.000000" stroke-width="2.000000"/>
		</g>
		<g style="mix-blend-mode:normal">
			<line id="直线 13" x1="1024.500000" y1="184.199219" x2="1024.500000" y2="253.699219" stroke="#FF0000" stroke-opacity="1.000000" stroke-width="2.000000"/>
		</g>
		<g style="mix-blend-mode:normal">
			<line id="直线 30" x1="870.000000" y1="65.699219" x2="870.000000" y2="74.699219" stroke="#FF0000" stroke-opacity="1.000000" stroke-width="2.000000"/>
		</g>
		<g style="mix-blend-mode:normal">
			<line id="直线 11" x1="1024.500000" y1="73.199219" x2="1024.500000" y2="109.199219" stroke="#FF0000" stroke-opacity="1.000000" stroke-width="2.000000"/>
		</g>
		<g style="mix-blend-mode:normal">
			<line id="直线 12" x1="1160.000000" y1="70.199219" x2="872.000000" y2="70.199219" stroke="#FF0000" stroke-opacity="1.000000" stroke-width="2.000000"/>
		</g>
		<g style="mix-blend-mode:normal">
			<line id="直线 17" x1="974.500000" y1="88.699219" x2="974.500000" y2="96.699219" stroke="#FF0000" stroke-opacity="1.000000" stroke-width="1.000000"/>
		</g>
		<g style="mix-blend-mode:normal">
			<line id="直线 18" x1="972.500000" y1="90.199219" x2="972.500000" y2="95.199219" stroke="#FF0000" stroke-opacity="1.000000" stroke-width="1.000000"/>
		</g>
		<g style="mix-blend-mode:normal">
			<line id="直线 19" x1="970.500000" y1="91.949219" x2="970.500000" y2="93.449219" stroke="#FF0000" stroke-opacity="1.000000" stroke-width="1.000000"/>
		</g>
		<g style="mix-blend-mode:normal">
			<line id="直线 14" x1="1020.500000" y1="92.699219" x2="1001.500000" y2="92.699219" stroke="#FF0000" stroke-opacity="1.000000" stroke-width="1.000000"/>
		</g>
		<g style="mix-blend-mode:normal">
			<line id="直线 15" x1="990.500000" y1="92.699219" x2="977.500000" y2="92.699219" stroke="#FF0000" stroke-opacity="1.000000" stroke-width="1.000000"/>
		</g>
		<g style="mix-blend-mode:normal">
			<line id="直线 16" x1="1001.500000" y1="89.699219" x2="990.500000" y2="92.699219" stroke="#FF0000" stroke-opacity="1.000000" stroke-width="1.000000"/>
		</g>
		<g style="mix-blend-mode:normal">
			<line id="直线 20" x1="1001.500000" y1="91.949219" x2="1001.500000" y2="93.449219" stroke="#FF0000" stroke-opacity="1.000000" stroke-width="1.000000"/>
		</g>
		<g style="mix-blend-mode:normal">
			<line id="直线 17" x1="974.500000" y1="253.699219" x2="974.500000" y2="261.699219" stroke="#FF0000" stroke-opacity="1.000000" stroke-width="1.000000"/>
		</g>
		<g style="mix-blend-mode:normal">
			<line id="直线 18" x1="972.500000" y1="255.199219" x2="972.500000" y2="260.199219" stroke="#FF0000" stroke-opacity="1.000000" stroke-width="1.000000"/>
		</g>
		<g style="mix-blend-mode:normal">
			<line id="直线 19" x1="970.500000" y1="256.949219" x2="970.500000" y2="258.449219" stroke="#FF0000" stroke-opacity="1.000000" stroke-width="1.000000"/>
		</g>
		<g style="mix-blend-mode:normal">
			<line id="直线 14" x1="1020.500000" y1="257.699219" x2="1001.500000" y2="257.699219" stroke="#FF0000" stroke-opacity="1.000000" stroke-width="1.000000"/>
		</g>
		<g style="mix-blend-mode:normal">
			<line id="直线 15" x1="990.500000" y1="257.699219" x2="977.500000" y2="257.699219" stroke="#FF0000" stroke-opacity="1.000000" stroke-width="1.000000"/>
		</g>
		<g style="mix-blend-mode:normal">
			<line id="直线 16" x1="1001.500000" y1="254.699219" x2="990.500000" y2="257.699219" stroke="#FF0000" stroke-opacity="1.000000" stroke-width="1.000000"/>
		</g>
		<g style="mix-blend-mode:normal">
			<line id="直线 20" x1="1001.500000" y1="256.949219" x2="1001.500000" y2="258.449219" stroke="#FF0000" stroke-opacity="1.000000" stroke-width="1.000000"/>
		</g>
		<g style="mix-blend-mode:normal">
			<path id="路径 1" d="M1029.5 258.19L1026.47 258.19" stroke="#FF0000" stroke-opacity="1.000000" stroke-width="1.000000"/>
		</g>
		<g style="mix-blend-mode:normal">
			<line id="直线 22" x1="1029.500000" y1="256.324219" x2="1029.500000" y2="260.074219" stroke="#FF0000" stroke-opacity="1.000000" stroke-width="1.000000"/>
		</g>
		<g style="mix-blend-mode:normal">
			<line id="直线 23" x1="1031.500000" y1="256.324219" x2="1031.500000" y2="260.074219" stroke="#FF0000" stroke-opacity="1.000000" stroke-width="1.000000"/>
		</g>
		<g style="mix-blend-mode:normal">
			<circle id="椭圆 1" cx="1050.000000" cy="258.199219" r="5.000000" fill="#FFFFFF" fill-opacity="0"/>
			<circle id="椭圆 1" cx="1050.000000" cy="258.199219" r="4.500000" stroke="#FF0000" stroke-opacity="1.000000" stroke-width="1.000000"/>
		</g>
		<g style="mix-blend-mode:normal">
			<line id="直线 25" x1="1046.500000" y1="254.699219" x2="1053.500000" y2="261.699219" stroke="#FF0000" stroke-opacity="1.000000" stroke-width="1.000000"/>
		</g>
		<g style="mix-blend-mode:normal">
			<line id="直线 26" x1="1053.500000" y1="254.699219" x2="1047.500000" y2="261.699219" stroke="#FF0000" stroke-opacity="1.000000" stroke-width="1.000000"/>
		</g>
		<g style="mix-blend-mode:normal">
			<line id="直线 24" x1="1045.500000" y1="258.199219" x2="1031.500000" y2="258.199219" stroke="#FF0000" stroke-opacity="1.000000" stroke-width="1.000000"/>
		</g>
		<g style="mix-blend-mode:normal">
			<line id="直线 27" x1="1069.000000" y1="258.199219" x2="1055.000000" y2="258.199219" stroke="#FF0000" stroke-opacity="1.000000" stroke-width="1.000000"/>
		</g>
		<g style="mix-blend-mode:normal">
			<line id="直线 28" x1="1069.000000" y1="258.199219" x2="1069.000000" y2="268.199219" stroke="#FF0000" stroke-opacity="1.000000" stroke-width="1.000000"/>
		</g>
		<g style="mix-blend-mode:normal">
			<line id="直线 17" x1="1065.000000" y1="270.699219" x2="1073.000000" y2="270.699219" stroke="#FF0000" stroke-opacity="1.000000" stroke-width="1.000000"/>
		</g>
		<g style="mix-blend-mode:normal">
			<line id="直线 18" x1="1066.500000" y1="272.699219" x2="1071.500000" y2="272.699219" stroke="#FF0000" stroke-opacity="1.000000" stroke-width="1.000000"/>
		</g>
		<g style="mix-blend-mode:normal">
			<line id="直线 19" x1="1068.250000" y1="274.699219" x2="1069.750000" y2="274.699219" stroke="#FF0000" stroke-opacity="1.000000" stroke-width="1.000000"/>
		</g>
		<g style="mix-blend-mode:normal">
			<path id="路径 1" d="M1108.26 75.22L1108.26 72.2" stroke="#FF0000" stroke-opacity="1.000000" stroke-width="1.000000"/>
		</g>
		<g style="mix-blend-mode:normal">
			<line id="直线 22" x1="1110.138672" y1="75.228516" x2="1106.388672" y2="75.228516" stroke="#FF0000" stroke-opacity="1.000000" stroke-width="1.000000"/>
		</g>
		<g style="mix-blend-mode:normal">
			<line id="直线 23" x1="1110.138672" y1="77.228516" x2="1106.388672" y2="77.228516" stroke="#FF0000" stroke-opacity="1.000000" stroke-width="1.000000"/>
		</g>
		<g style="mix-blend-mode:normal">
			<circle id="椭圆 1" r="5.000000" transform="matrix(0 1 -1 0 1108.26 95.7285)" fill="#FFFFFF" fill-opacity="0"/>
			<circle id="椭圆 1" r="4.500000" transform="matrix(0 1 -1 0 1108.26 95.7285)" stroke="#FF0000" stroke-opacity="1.000000" stroke-width="1.000000"/>
		</g>
		<g style="mix-blend-mode:normal">
			<line id="直线 25" x1="1111.763672" y1="92.228516" x2="1104.763672" y2="99.228516" stroke="#FF0000" stroke-opacity="1.000000" stroke-width="1.000000"/>
		</g>
		<g style="mix-blend-mode:normal">
			<line id="直线 26" x1="1111.763672" y1="99.228516" x2="1104.763672" y2="93.228516" stroke="#FF0000" stroke-opacity="1.000000" stroke-width="1.000000"/>
		</g>
		<g style="mix-blend-mode:normal">
			<line id="直线 24" x1="1108.263672" y1="91.228516" x2="1108.263672" y2="77.228516" stroke="#FF0000" stroke-opacity="1.000000" stroke-width="1.000000"/>
		</g>
		<g style="mix-blend-mode:normal">
			<line id="直线 27" x1="1108.263672" y1="114.728516" x2="1108.263672" y2="100.728516" stroke="#FF0000" stroke-opacity="1.000000" stroke-width="1.000000"/>
		</g>
		<g style="mix-blend-mode:normal">
			<line id="直线 17" x1="1104.263672" y1="117.464844" x2="1112.263672" y2="117.464844" stroke="#FF0000" stroke-opacity="1.000000" stroke-width="1.000000"/>
		</g>
		<g style="mix-blend-mode:normal">
			<line id="直线 18" x1="1105.763672" y1="119.464844" x2="1110.763672" y2="119.464844" stroke="#FF0000" stroke-opacity="1.000000" stroke-width="1.000000"/>
		</g>
		<g style="mix-blend-mode:normal">
			<line id="直线 19" x1="1107.513672" y1="121.464844" x2="1109.013672" y2="121.464844" stroke="#FF0000" stroke-opacity="1.000000" stroke-width="1.000000"/>
		</g>
		<g style="mix-blend-mode:normal">
			<line id="直线 17" x1="1127.000000" y1="117.464844" x2="1135.000000" y2="117.464844" stroke="#FF0000" stroke-opacity="1.000000" stroke-width="1.000000"/>
		</g>
		<g style="mix-blend-mode:normal">
			<line id="直线 18" x1="1128.500000" y1="119.464844" x2="1133.500000" y2="119.464844" stroke="#FF0000" stroke-opacity="1.000000" stroke-width="1.000000"/>
		</g>
		<g style="mix-blend-mode:normal">
			<line id="直线 19" x1="1130.250000" y1="121.464844" x2="1131.750000" y2="121.464844" stroke="#FF0000" stroke-opacity="1.000000" stroke-width="1.000000"/>
		</g>
		<g style="mix-blend-mode:normal">
			<rect id="矩形 3" x="1126.000000" y="78.464844" rx="1.000000" width="10.000000" height="34.000000" fill="#FFFFFF" fill-opacity="0"/>
			<rect id="矩形 3" x="1126.500000" y="78.964844" rx="1.000000" width="9.000000" height="33.000000" stroke="#FF0000" stroke-opacity="1.000000" stroke-width="1.000000"/>
		</g>
		<g style="mix-blend-mode:normal">
			<line id="直线 29" x1="1131.000000" y1="82.464844" x2="1131.000000" y2="101.464844" stroke="#FF0000" stroke-opacity="1.000000" stroke-width="1.000000"/>
		</g>
		<g style="mix-blend-mode:normal">
			<path id="多边形 2" d="M1130.5 107.46L1128 101.46L1133 101.46L1130.5 107.46Z" fill="#FFFFFF" fill-opacity="0" fill-rule="evenodd"/>
			<path id="多边形 2" d="M1128.42 102.46L1128 101.46L1133 101.46L1132.57 102.46L1131.04 106.16L1130.5 107.46L1128.42 102.46ZM1129.5 102.46L1131.5 102.46L1130.5 104.86L1129.5 102.46Z" fill="#FF0000" fill-opacity="1.000000" fill-rule="evenodd"/>
		</g>
		<g style="mix-blend-mode:normal">
			<path id="路径 2" d="M1131 78.22L1131 72.2" stroke="#FF0000" stroke-opacity="1.000000" stroke-width="1.000000"/>
		</g>
		<g style="mix-blend-mode:normal">
			<path id="路径 3" d="M1131 115.97L1131 112.46" stroke="#FF0000" stroke-opacity="1.000000" stroke-width="1.000000"/>
		</g>
		<g style="mix-blend-mode:normal">
			<line id="直线 17" x1="1345.000000" y1="525.265625" x2="1353.000000" y2="525.265625" stroke="#FF0000" stroke-opacity="1.000000" stroke-width="1.000000"/>
		</g>
		<g style="mix-blend-mode:normal">
			<line id="直线 18" x1="1346.500000" y1="527.265625" x2="1351.500000" y2="527.265625" stroke="#FF0000" stroke-opacity="1.000000" stroke-width="1.000000"/>
		</g>
		<g style="mix-blend-mode:normal">
			<line id="直线 19" x1="1348.250000" y1="529.265625" x2="1349.750000" y2="529.265625" stroke="#FF0000" stroke-opacity="1.000000" stroke-width="1.000000"/>
		</g>
		<g style="mix-blend-mode:normal">
			<rect id="矩形 3" x="1344.000000" y="486.265625" rx="1.000000" width="10.000000" height="34.000000" fill="#FFFFFF" fill-opacity="0"/>
			<rect id="矩形 3" x="1344.500000" y="486.765625" rx="1.000000" width="9.000000" height="33.000000" stroke="#FF0000" stroke-opacity="1.000000" stroke-width="1.000000"/>
		</g>
		<g style="mix-blend-mode:normal">
			<line id="直线 29" x1="1362.000000" y1="494.000000" x2="1336.000000" y2="514.000000" stroke="#FF0000" stroke-opacity="1.000000" stroke-width="1.000000"/>
		</g>
		<g style="mix-blend-mode:normal">
			<path id="路径 2" d="M1349 486.02L1349 480" stroke="#FF0000" stroke-opacity="1.000000" stroke-width="1.000000"/>
		</g>
		<g style="mix-blend-mode:normal">
			<path id="路径 3" d="M1349 523.77L1349 520.26" stroke="#FF0000" stroke-opacity="1.000000" stroke-width="1.000000"/>
		</g>
		<g style="mix-blend-mode:normal">
			<path id="路径 1" d="M1091 489.02L1091 486" stroke="#FF0000" stroke-opacity="1.000000" stroke-width="1.000000"/>
		</g>
		<g style="mix-blend-mode:normal">
			<line id="直线 22" x1="1092.875000" y1="489.027344" x2="1089.125000" y2="489.027344" stroke="#FF0000" stroke-opacity="1.000000" stroke-width="1.000000"/>
		</g>
		<g style="mix-blend-mode:normal">
			<line id="直线 23" x1="1092.875000" y1="491.027344" x2="1089.125000" y2="491.027344" stroke="#FF0000" stroke-opacity="1.000000" stroke-width="1.000000"/>
		</g>
		<g style="mix-blend-mode:normal">
			<circle id="椭圆 1" r="5.000000" transform="matrix(0 1 -1 0 1091 509.527)" fill="#FFFFFF" fill-opacity="0"/>
			<circle id="椭圆 1" r="4.500000" transform="matrix(0 1 -1 0 1091 509.527)" stroke="#FF0000" stroke-opacity="1.000000" stroke-width="1.000000"/>
		</g>
		<g style="mix-blend-mode:normal">
			<line id="直线 25" x1="1094.500000" y1="506.027344" x2="1087.500000" y2="513.027344" stroke="#FF0000" stroke-opacity="1.000000" stroke-width="1.000000"/>
		</g>
		<g style="mix-blend-mode:normal">
			<line id="直线 26" x1="1094.500000" y1="513.027344" x2="1087.500000" y2="507.027344" stroke="#FF0000" stroke-opacity="1.000000" stroke-width="1.000000"/>
		</g>
		<g style="mix-blend-mode:normal">
			<line id="直线 24" x1="1091.000000" y1="505.027344" x2="1091.000000" y2="491.027344" stroke="#FF0000" stroke-opacity="1.000000" stroke-width="1.000000"/>
		</g>
		<g style="mix-blend-mode:normal">
			<line id="直线 27" x1="1091.000000" y1="528.527344" x2="1091.000000" y2="514.527344" stroke="#FF0000" stroke-opacity="1.000000" stroke-width="1.000000"/>
		</g>
		<g style="mix-blend-mode:normal">
			<line id="直线 17" x1="1087.000000" y1="531.263672" x2="1095.000000" y2="531.263672" stroke="#FF0000" stroke-opacity="1.000000" stroke-width="1.000000"/>
		</g>
		<g style="mix-blend-mode:normal">
			<line id="直线 18" x1="1088.500000" y1="533.263672" x2="1093.500000" y2="533.263672" stroke="#FF0000" stroke-opacity="1.000000" stroke-width="1.000000"/>
		</g>
		<g style="mix-blend-mode:normal">
			<line id="直线 19" x1="1090.250000" y1="535.263672" x2="1091.750000" y2="535.263672" stroke="#FF0000" stroke-opacity="1.000000" stroke-width="1.000000"/>
		</g>
		<g style="mix-blend-mode:normal">
			<line id="直线 17" x1="1109.736328" y1="531.263672" x2="1117.736328" y2="531.263672" stroke="#FF0000" stroke-opacity="1.000000" stroke-width="1.000000"/>
		</g>
		<g style="mix-blend-mode:normal">
			<line id="直线 18" x1="1111.236328" y1="533.263672" x2="1116.236328" y2="533.263672" stroke="#FF0000" stroke-opacity="1.000000" stroke-width="1.000000"/>
		</g>
		<g style="mix-blend-mode:normal">
			<line id="直线 19" x1="1112.986328" y1="535.263672" x2="1114.486328" y2="535.263672" stroke="#FF0000" stroke-opacity="1.000000" stroke-width="1.000000"/>
		</g>
		<g style="mix-blend-mode:normal">
			<rect id="矩形 3" x="1108.736328" y="492.263672" rx="1.000000" width="10.000000" height="34.000000" fill="#FFFFFF" fill-opacity="0"/>
			<rect id="矩形 3" x="1109.236328" y="492.763672" rx="1.000000" width="9.000000" height="33.000000" stroke="#FF0000" stroke-opacity="1.000000" stroke-width="1.000000"/>
		</g>
		<g style="mix-blend-mode:normal">
			<line id="直线 29" x1="1113.736328" y1="496.263672" x2="1113.736328" y2="515.263672" stroke="#FF0000" stroke-opacity="1.000000" stroke-width="1.000000"/>
		</g>
		<g style="mix-blend-mode:normal">
			<path id="多边形 2" d="M1113.24 521.26L1110.74 515.26L1115.74 515.26L1113.24 521.26Z" fill="#FFFFFF" fill-opacity="0" fill-rule="evenodd"/>
			<path id="多边形 2" d="M1111.15 516.26L1110.74 515.26L1115.74 515.26L1115.31 516.26L1113.78 519.96L1113.24 521.26L1111.15 516.26ZM1112.24 516.26L1114.24 516.26L1113.24 518.66L1112.24 516.26Z" fill="#FF0000" fill-opacity="1.000000" fill-rule="evenodd"/>
		</g>
		<g style="mix-blend-mode:normal">
			<path id="路径 2" d="M1113.74 492.02L1113.74 486" stroke="#FF0000" stroke-opacity="1.000000" stroke-width="1.000000"/>
		</g>
		<g style="mix-blend-mode:normal">
			<path id="路径 3" d="M1113.74 529.77L1113.74 526.26" stroke="#FF0000" stroke-opacity="1.000000" stroke-width="1.000000"/>
		</g>
		<g style="mix-blend-mode:normal">
			<path id="路径 1" d="M1231 452.02L1231 449" stroke="#FF0000" stroke-opacity="1.000000" stroke-width="1.000000"/>
		</g>
		<g style="mix-blend-mode:normal">
			<line id="直线 22" x1="1232.875000" y1="452.027344" x2="1229.125000" y2="452.027344" stroke="#FF0000" stroke-opacity="1.000000" stroke-width="1.000000"/>
		</g>
		<g style="mix-blend-mode:normal">
			<line id="直线 23" x1="1232.875000" y1="454.027344" x2="1229.125000" y2="454.027344" stroke="#FF0000" stroke-opacity="1.000000" stroke-width="1.000000"/>
		</g>
		<g style="mix-blend-mode:normal">
			<circle id="椭圆 1" r="5.000000" transform="matrix(0 1 -1 0 1231 472.527)" fill="#FFFFFF" fill-opacity="0"/>
			<circle id="椭圆 1" r="4.500000" transform="matrix(0 1 -1 0 1231 472.527)" stroke="#FF0000" stroke-opacity="1.000000" stroke-width="1.000000"/>
		</g>
		<g style="mix-blend-mode:normal">
			<line id="直线 25" x1="1234.500000" y1="469.027344" x2="1227.500000" y2="476.027344" stroke="#FF0000" stroke-opacity="1.000000" stroke-width="1.000000"/>
		</g>
		<g style="mix-blend-mode:normal">
			<line id="直线 26" x1="1234.500000" y1="476.027344" x2="1227.500000" y2="470.027344" stroke="#FF0000" stroke-opacity="1.000000" stroke-width="1.000000"/>
		</g>
		<g style="mix-blend-mode:normal">
			<line id="直线 24" x1="1231.000000" y1="468.027344" x2="1231.000000" y2="454.027344" stroke="#FF0000" stroke-opacity="1.000000" stroke-width="1.000000"/>
		</g>
		<g style="mix-blend-mode:normal">
			<line id="直线 27" x1="1231.000000" y1="491.527344" x2="1231.000000" y2="477.527344" stroke="#FF0000" stroke-opacity="1.000000" stroke-width="1.000000"/>
		</g>
		<g style="mix-blend-mode:normal">
			<line id="直线 17" x1="1227.000000" y1="494.263672" x2="1235.000000" y2="494.263672" stroke="#FF0000" stroke-opacity="1.000000" stroke-width="1.000000"/>
		</g>
		<g style="mix-blend-mode:normal">
			<line id="直线 18" x1="1228.500000" y1="496.263672" x2="1233.500000" y2="496.263672" stroke="#FF0000" stroke-opacity="1.000000" stroke-width="1.000000"/>
		</g>
		<g style="mix-blend-mode:normal">
			<line id="直线 19" x1="1230.250000" y1="498.263672" x2="1231.750000" y2="498.263672" stroke="#FF0000" stroke-opacity="1.000000" stroke-width="1.000000"/>
		</g>
		<g style="mix-blend-mode:normal">
			<line id="直线 17" x1="1249.736328" y1="494.263672" x2="1257.736328" y2="494.263672" stroke="#FF0000" stroke-opacity="1.000000" stroke-width="1.000000"/>
		</g>
		<g style="mix-blend-mode:normal">
			<line id="直线 18" x1="1251.236328" y1="496.263672" x2="1256.236328" y2="496.263672" stroke="#FF0000" stroke-opacity="1.000000" stroke-width="1.000000"/>
		</g>
		<g style="mix-blend-mode:normal">
			<line id="直线 19" x1="1252.986328" y1="498.263672" x2="1254.486328" y2="498.263672" stroke="#FF0000" stroke-opacity="1.000000" stroke-width="1.000000"/>
		</g>
		<g style="mix-blend-mode:normal">
			<path id="路径 2" d="M1254 461L1254 449" stroke="#FF0000" stroke-opacity="1.000000" stroke-width="1.000000"/>
		</g>
		<g style="mix-blend-mode:normal">
			<path id="路径 3" d="M1253.74 492.77L1253.74 479" stroke="#FF0000" stroke-opacity="1.000000" stroke-width="1.000000"/>
		</g>
		<g style="mix-blend-mode:normal">
			<path id="拼接至原有10KV II 段母线 " d="M709.6 73.21Q710.48 72.6 711.25 71.83L711.25 79.08L713.56 79.08L713.56 76.85L721.61 76.85L721.61 79.08L723.91 79.08L723.91 67.35L714.42 67.35Q714.75 66.66 714.94 66.11L725.09 66.11L725.09 63.84L715.61 63.84Q715.79 63.07 715.86 62.43L713.58 62.43Q713.47 62.99 713.27 63.84L708.9 63.84L708.9 66.11L712.46 66.11Q712 67.14 711.37 68.06Q710.25 69.66 708.59 70.89L708.59 73.85Q709.11 73.55 709.6 73.21ZM661.12 79.01Q664.89 78.78 667.03 77.41L671.13 79.05L671.13 76.73L668.79 75.81Q669.64 74.75 670.3 73.05L671.35 73.05L671.35 71L665.73 71L666.41 69.44L671.19 69.44L671.19 67.35L669.39 67.35L670.05 65.55L671.01 65.55L671.01 63.5L667.3 63.5L667.3 62.51L665 62.51L665 63.5L661.29 63.5L661.29 65.55L662.38 65.55L662.91 67.35L661.11 67.35L661.11 69.44L664 69.44L663.32 71L660.94 71L660.94 73.05L662.44 73.05L661.52 75.19L664.42 76.37Q663.08 76.82 661.12 76.93L661.12 79.01ZM840.64 76.8Q841.3 77.91 842.22 79L845.19 79Q843.79 77.58 842.86 75.9Q842.81 75.81 842.76 75.72Q844.24 74.89 845.21 74.17L845.21 71.74Q843.77 72.71 841.88 73.72Q841.52 72.71 841.32 71.56L845.21 71.2L845.21 68.82L841.07 69.2Q841.05 68.9 841.05 68.28L841.05 67.51L845.21 67.26L845.21 64.92L841.05 65.17L841.05 62.6L838.64 62.6L838.64 65.32L836.05 65.46L836.05 67.8L838.64 67.65L838.64 68.28Q838.64 69.06 838.66 69.44L836.05 69.67L836.05 72.05L838.87 71.78Q839.14 73.45 839.67 74.8Q837.81 75.63 835.69 76.39L835.69 78.67Q838.34 77.84 840.64 76.8ZM638.69 76.82L637.31 76.82L637.31 79L641.04 79L641.04 72.71L642.66 72.32L642.66 69.82L641.04 70.21L641.04 67.47L642.48 67.47L642.48 65.21L641.04 65.21L641.04 62.71L638.69 62.71L638.69 65.21L637 65.21L637 67.47L638.69 67.47L638.69 70.79L636.82 71.25L636.82 73.76L638.69 73.29L638.69 76.82ZM656.79 70.75L654.82 71.25L654.82 73.76L656.79 73.25L656.79 76.73L655.31 76.73L655.31 79L659.11 79L659.11 72.66L660.46 72.32L660.46 69.82L659.11 70.15L659.11 67.47L660.46 67.47L660.46 65.21L659.11 65.21L659.11 62.71L656.79 62.71L656.79 65.21L655 65.21L655 67.47L656.79 67.47L656.79 70.75ZM844.8 64.65L844.4 62.71L842.6 62.71L842.99 64.65L844.8 64.65ZM793.57 75.18L792.67 75.27L792.67 77.55L793.57 77.46L793.57 79L795.87 79L795.87 77.23L800.03 76.82L800.03 74.53L795.87 74.94L795.87 72.73L799.56 72.73L799.56 70.53L795.87 70.53L795.87 68.97L799.56 68.97L799.56 66.77L795.87 66.77L795.87 65.22Q798.43 65.15 800.23 65.03L800.23 62.74Q797.06 62.97 793.57 62.97L793.57 75.18ZM643.72 77.02Q643.39 77.79 642.75 79L645.34 79Q646.11 77.36 646.4 76.01Q646.69 74.65 646.74 73.16L649.51 73.16L649.51 79L651.78 79L651.78 73.16L653.27 73.16L653.27 70.86L651.78 70.86L651.78 67.1L652.88 67.1L652.88 64.79L651.64 64.79L652.23 62.79L649.89 62.79L649.3 64.79L646.9 64.79L646.31 62.79L643.97 62.79L644.56 64.79L643.32 64.79L643.32 67.1L644.47 67.1L644.47 70.86L642.91 70.86L642.91 73.16L644.45 73.16Q644.42 74.44 644.23 75.35Q644.04 76.26 643.72 77.02ZM833.99 62.79L831.74 62.79L828.87 69.24L831.03 70.51L829.16 74.75L835.07 74.75L835.07 72.43L832.79 72.43L835.62 66.01L833.48 66.01L832.43 68.43L831.67 67.94L833.99 62.79ZM707.09 65.15L707.09 62.97L691.67 62.97L691.67 70.19Q691.67 72.8 691.41 74.83Q691.16 76.85 690.54 79L692.97 79Q693.49 76.96 693.71 74.84Q693.94 72.71 693.94 70.19L693.94 65.15L699.54 65.15L699.54 66.12L695.38 66.12L695.38 73.45L699.73 73.45L699.73 79L701.84 79L701.84 73.45L706.05 73.45L706.05 66.12L701.77 66.12L701.77 65.15L707.09 65.15ZM827.57 69.56L825.66 69.56L825.23 63.03L812.99 63.03L812.56 69.56L810.65 69.56L810.65 71.87L812.41 71.87L811.96 78.76L826.26 78.76L825.81 71.87L827.57 71.87L827.57 69.56ZM679.81 76.47L672.8 76.47L672.8 78.78L689.19 78.78L689.19 76.47L682.18 76.47L682.18 74.51L688.32 74.51L688.32 72.23L682.18 72.23L682.18 70.48L688.73 70.48L686.61 66.07L683.98 66.07L685.01 68.21L678.04 68.21L680.01 65.3L688.91 65.3L688.91 63.05L673.08 63.05L673.08 65.3L677.04 65.3L675.07 68.21L673.56 68.21L673.56 70.48L679.81 70.48L679.81 72.23L673.67 72.23L673.67 74.51L679.81 74.51L679.81 76.47ZM801.36 67.16Q801.06 68.3 800.28 69.47L802.91 69.47Q803.44 68.34 803.7 67.16Q803.89 66.3 803.94 65.4L805.84 65.4L805.84 69.2L809.21 69.2L809.21 67.04L808.13 67.04L808.13 63.1L801.67 63.1L801.67 64.56Q801.67 66.01 801.36 67.16ZM739.47 76.74Q740.46 77.43 741.92 77.43Q743.38 77.43 744.37 76.74Q746.44 75.31 746.44 70.89Q746.44 66.48 744.38 65.05Q743.39 64.36 741.92 64.36Q740.46 64.36 739.47 65.05Q737.41 66.48 737.41 70.89Q737.41 75.31 739.47 76.74ZM754.27 74.19Q755.05 75.21 756.24 77.18L759.33 77.18Q758 74.93 756.92 73.51Q755.84 72.08 754.38 70.75L758.7 64.6L755.46 64.6L751.95 69.69L751.29 69.69L751.29 64.6L748.32 64.6L748.32 77.19L751.29 77.19L751.29 72.1L752.35 72.1Q753.5 73.16 754.27 74.19ZM762.75 64.6L759.53 64.6L763.42 77.19L768.2 77.19L772.09 64.6L768.87 64.6L765.85 75.19L765.77 75.19L762.75 64.6ZM781.06 64.6L778.09 64.6L778.09 77.19L781.06 77.19L781.06 64.6ZM786.3 64.6L783.33 64.6L783.33 77.19L786.3 77.19L786.3 64.6ZM728.46 69L730.79 68.03L730.79 77.19L733.45 77.19L733.45 64.61L731.56 64.61L728.46 66.37L728.46 69ZM817.76 66.54L818.21 69.56L814.92 69.56L815.15 65.33L823.07 65.33L823.3 69.56L820.46 69.56L820.01 66.54L817.76 66.54ZM667.17 67.35L665.16 67.35L664.63 65.55L667.84 65.55L667.17 67.35ZM740.49 73.99Q740.05 73 740.05 70.89Q740.05 68.81 740.49 67.82Q740.75 67.25 741.19 67Q741.51 66.83 741.92 66.83Q742.35 66.83 742.67 67.01Q743.11 67.25 743.36 67.82Q743.8 68.81 743.8 70.89Q743.8 73 743.36 73.99Q743.11 74.56 742.67 74.8Q742.35 74.98 741.92 74.98Q741.51 74.98 741.19 74.8Q740.75 74.56 740.49 73.99ZM649.51 67.1L649.51 70.86L646.74 70.86L646.74 67.1L649.51 67.1ZM703.79 68.01L703.79 68.95L697.65 68.95L697.65 68.01L703.79 68.01ZM721.61 69.58L721.61 71.02L713.56 71.02L713.56 69.58L721.61 69.58ZM804.91 77.12Q806.71 78.54 809.21 79.21L809.21 76.82Q807.71 76.31 806.55 75.48Q806.65 75.35 806.75 75.22Q808.39 72.97 808.81 69.83L800.98 69.83Q801.41 72.99 803.07 75.25Q803.16 75.37 803.25 75.48Q802.08 76.31 800.59 76.82L800.59 79.21Q803.09 78.54 804.91 77.12ZM703.79 70.64L703.79 71.58L697.65 71.58L697.65 70.64L703.79 70.64ZM804.65 73.53Q804.13 72.73 803.77 71.83L806.02 71.83Q805.59 72.96 804.89 73.86Q804.77 73.7 804.65 73.53ZM817.74 72.93L818.26 76.46L814.52 76.46L814.77 71.87L823.45 71.87L823.7 76.46L820.51 76.46L819.99 72.93L817.74 72.93ZM668.02 73.05Q667.53 74.21 666.7 75L664.36 74.08L664.81 73.05L668.02 73.05ZM721.61 73.22L721.61 74.64L713.56 74.65L713.56 73.22L721.61 73.22ZM695.66 74.04Q695.66 76.33 694.82 78.83L697.07 78.83Q697.75 76.55 697.75 74.04L695.66 74.04ZM706.75 78.83Q705.91 76.33 705.91 74.04L703.82 74.04Q703.82 76.55 704.5 78.83L706.75 78.83ZM835.17 75.97L828.99 76.57L828.99 78.89L835.17 78.29L835.17 75.97Z" fill="#FFFDFD" fill-opacity="1.000000" fill-rule="evenodd"/>
			<path id="拼接至原有10KV II 段母线 " d="M637.31 76.82L638.69 76.82L638.69 73.29L636.82 73.76L636.82 71.25L638.69 70.79L638.69 67.47L637 67.47L637 65.21L638.69 65.21L638.69 62.71L641.04 62.71L641.04 65.21L642.48 65.21L642.48 67.47L641.04 67.47L641.04 70.21L642.66 69.82L642.66 72.32L641.04 72.71L641.04 79L637.31 79L637.31 76.82ZM642.75 79Q643.39 77.79 643.72 77.02Q644.04 76.26 644.23 75.35Q644.42 74.44 644.45 73.16L642.91 73.16L642.91 70.86L644.47 70.86L644.47 67.1L643.32 67.1L643.32 64.79L644.56 64.79L643.97 62.79L646.31 62.79L646.9 64.79L649.3 64.79L649.89 62.79L652.23 62.79L651.64 64.79L652.88 64.79L652.88 67.1L651.78 67.1L651.78 70.86L653.27 70.86L653.27 73.16L651.78 73.16L651.78 79L649.51 79L649.51 73.16L646.74 73.16Q646.69 74.65 646.4 76.01Q646.11 77.36 645.34 79L642.75 79ZM649.51 70.86L649.51 67.1L646.74 67.1L646.74 70.86L649.51 70.86ZM667.03 77.41Q664.89 78.78 661.12 79.01L661.12 76.93Q663.08 76.82 664.42 76.37L661.52 75.19L662.44 73.05L660.94 73.05L660.94 71L663.32 71L664 69.44L661.11 69.44L661.11 67.35L662.91 67.35L662.38 65.55L661.29 65.55L661.29 63.5L665 63.5L665 62.51L667.3 62.51L667.3 63.5L671.01 63.5L671.01 65.55L670.05 65.55L669.39 67.35L671.19 67.35L671.19 69.44L666.41 69.44L665.73 71L671.35 71L671.35 73.05L670.3 73.05Q669.64 74.75 668.79 75.81L671.13 76.73L671.13 79.05L667.03 77.41ZM654.82 71.25L656.79 70.75L656.79 67.47L655 67.47L655 65.21L656.79 65.21L656.79 62.71L659.11 62.71L659.11 65.21L660.46 65.21L660.46 67.47L659.11 67.47L659.11 70.15L660.46 69.82L660.46 72.32L659.11 72.66L659.11 79L655.31 79L655.31 76.73L656.79 76.73L656.79 73.25L654.82 73.76L654.82 71.25ZM666.7 75Q667.53 74.21 668.02 73.05L664.81 73.05L664.36 74.08L666.7 75ZM665.16 67.35L667.17 67.35L667.84 65.55L664.63 65.55L665.16 67.35ZM672.8 76.47L679.81 76.47L679.81 74.51L673.67 74.51L673.67 72.23L679.81 72.23L679.81 70.48L673.56 70.48L673.56 68.21L675.07 68.21L677.04 65.3L673.08 65.3L673.08 63.05L688.91 63.05L688.91 65.3L680.01 65.3L678.04 68.21L685.01 68.21L683.98 66.07L686.61 66.07L688.73 70.48L682.18 70.48L682.18 72.23L688.32 72.23L688.32 74.51L682.18 74.51L682.18 76.47L689.19 76.47L689.19 78.78L672.8 78.78L672.8 76.47ZM707.09 62.97L707.09 65.15L701.77 65.15L701.77 66.12L706.05 66.12L706.05 73.45L701.84 73.45L701.84 79L699.73 79L699.73 73.45L695.38 73.45L695.38 66.12L699.54 66.12L699.54 65.15L693.94 65.15L693.94 70.19Q693.94 72.71 693.71 74.84Q693.49 76.96 692.97 79L690.54 79Q691.16 76.85 691.41 74.83Q691.67 72.8 691.67 70.19L691.67 62.97L707.09 62.97ZM694.82 78.83Q695.66 76.33 695.66 74.04L697.75 74.04Q697.75 76.55 697.07 78.83L694.82 78.83ZM703.79 71.58L703.79 70.64L697.65 70.64L697.65 71.58L703.79 71.58ZM703.79 68.95L703.79 68.01L697.65 68.01L697.65 68.95L703.79 68.95ZM705.91 74.04Q705.91 76.33 706.75 78.83L704.5 78.83Q703.82 76.55 703.82 74.04L705.91 74.04ZM711.25 71.83Q710.05 73.02 708.59 73.85L708.59 70.89Q711.2 68.97 712.46 66.11L708.9 66.11L708.9 63.84L713.27 63.84Q713.47 62.99 713.58 62.43L715.86 62.43Q715.79 63.07 715.61 63.84L725.09 63.84L725.09 66.11L714.94 66.11Q714.75 66.66 714.42 67.35L723.91 67.35L723.91 79.08L721.61 79.08L721.61 76.85L713.56 76.85L713.56 79.08L711.25 79.08L711.25 71.83ZM721.61 74.64L721.61 73.22L713.56 73.22L713.56 74.65L721.61 74.64ZM721.61 71.02L721.61 69.58L713.56 69.58L713.56 71.02L721.61 71.02ZM730.79 68.03L728.46 69L728.46 66.37L731.56 64.61L733.45 64.61L733.45 77.19L730.79 77.19L730.79 68.03ZM741.92 77.43Q737.41 77.43 737.41 70.89Q737.41 64.36 741.92 64.36Q746.44 64.36 746.44 70.89Q746.44 77.43 741.92 77.43ZM740.05 70.89Q740.05 73 740.49 73.99Q740.94 74.98 741.92 74.98Q742.92 74.98 743.36 73.99Q743.8 73 743.8 70.89Q743.8 68.81 743.36 67.82Q742.92 66.83 741.92 66.83Q740.94 66.83 740.49 67.82Q740.05 68.81 740.05 70.89ZM756.24 77.18Q755.05 75.21 754.27 74.19Q753.5 73.16 752.35 72.1L751.29 72.1L751.29 77.19L748.32 77.19L748.32 64.6L751.29 64.6L751.29 69.69L751.95 69.69L755.46 64.6L758.7 64.6L754.38 70.75Q755.84 72.08 756.92 73.51Q758 74.93 759.33 77.18L756.24 77.18ZM759.53 64.6L762.75 64.6L765.77 75.19L765.85 75.19L768.87 64.6L772.09 64.6L768.2 77.19L763.42 77.19L759.53 64.6ZM778.09 64.6L781.06 64.6L781.06 77.19L778.09 77.19L778.09 64.6ZM783.33 64.6L786.3 64.6L786.3 77.19L783.33 77.19L783.33 64.6ZM809.21 79.21Q806.71 78.54 804.91 77.12Q803.09 78.54 800.59 79.21L800.59 76.82Q802.08 76.31 803.25 75.48Q801.43 73.16 800.98 69.83L808.81 69.83Q808.36 73.16 806.55 75.48Q807.71 76.31 809.21 76.82L809.21 79.21ZM792.67 75.27L793.57 75.18L793.57 62.97Q797.06 62.97 800.23 62.74L800.23 65.03Q798.43 65.15 795.87 65.22L795.87 66.77L799.56 66.77L799.56 68.97L795.87 68.97L795.87 70.53L799.56 70.53L799.56 72.73L795.87 72.73L795.87 74.94L800.03 74.53L800.03 76.82L795.87 77.23L795.87 79L793.57 79L793.57 77.46L792.67 77.55L792.67 75.27ZM800.28 69.47Q801.06 68.3 801.36 67.16Q801.67 66.01 801.67 64.56L801.67 63.1L808.13 63.1L808.13 67.04L809.21 67.04L809.21 69.2L805.84 69.2L805.84 65.4L803.94 65.4Q803.83 67.53 802.91 69.47L800.28 69.47ZM803.77 71.83Q804.21 72.93 804.89 73.86Q805.59 72.96 806.02 71.83L803.77 71.83ZM825.66 69.56L827.57 69.56L827.57 71.87L825.81 71.87L826.26 78.76L811.96 78.76L812.41 71.87L810.65 71.87L810.65 69.56L812.56 69.56L812.99 63.03L825.23 63.03L825.66 69.56ZM818.26 76.46L817.74 72.93L819.99 72.93L820.51 76.46L823.7 76.46L823.45 71.87L814.77 71.87L814.52 76.46L818.26 76.46ZM818.21 69.56L817.76 66.54L820.01 66.54L820.46 69.56L823.3 69.56L823.07 65.33L815.15 65.33L814.92 69.56L818.21 69.56ZM842.22 79Q841.3 77.91 840.64 76.8Q838.34 77.84 835.69 78.67L835.69 76.39Q837.81 75.63 839.67 74.8Q839.14 73.45 838.87 71.78L836.05 72.05L836.05 69.67L838.66 69.44Q838.64 69.06 838.64 68.28L838.64 67.65L836.05 67.8L836.05 65.46L838.64 65.32L838.64 62.6L841.05 62.6L841.05 65.17L845.21 64.92L845.21 67.26L841.05 67.51L841.05 68.28Q841.05 68.9 841.07 69.2L845.21 68.82L845.21 71.2L841.32 71.56Q841.52 72.71 841.88 73.72Q843.77 72.71 845.21 71.74L845.21 74.17Q844.24 74.89 842.76 75.72Q843.71 77.5 845.19 79L842.22 79ZM831.74 62.79L833.99 62.79L831.67 67.94L832.43 68.43L833.48 66.01L835.62 66.01L832.79 72.43L835.07 72.43L835.07 74.75L829.16 74.75L831.03 70.51L828.87 69.24L831.74 62.79ZM828.99 76.57L835.17 75.97L835.17 78.29L828.99 78.89L828.99 76.57ZM844.4 62.71L844.8 64.65L842.99 64.65L842.6 62.71L844.4 62.71Z" stroke="#707070" stroke-opacity="0" stroke-width="1.000000"/>
		</g>
		<g style="mix-blend-mode:normal">
			<rect id="矩形 5" x="1018.500000" y="130.199219" width="12.000000" height="32.000000" fill="#FF0000" fill-opacity="1.000000"/>
			<rect id="矩形 5" x="1019.000000" y="130.699219" width="11.000000" height="31.000000" stroke="#707070" stroke-opacity="0" stroke-width="1.000000"/>
		</g>
		<g style="mix-blend-mode:normal">
			<line id="直线 31" x1="1024.500000" y1="112.464844" x2="1018.500000" y2="118.464844" stroke="#00E62C" stroke-opacity="1.000000" stroke-width="1.000000"/>
		</g>
		<g style="mix-blend-mode:normal">
			<line id="直线 32" x1="1030.500000" y1="118.464844" x2="1024.500000" y2="112.464844" stroke="#00E62C" stroke-opacity="1.000000" stroke-width="1.000000"/>
		</g>
		<g style="mix-blend-mode:normal">
			<line id="直线 31" x1="1024.500000" y1="115.464844" x2="1018.500000" y2="121.464844" stroke="#00E62C" stroke-opacity="1.000000" stroke-width="1.000000"/>
		</g>
		<g style="mix-blend-mode:normal">
			<line id="直线 32" x1="1030.500000" y1="121.464844" x2="1024.500000" y2="115.464844" stroke="#00E62C" stroke-opacity="1.000000" stroke-width="1.000000"/>
		</g>
		<g style="mix-blend-mode:normal">
			<line id="直线 31" x1="1024.500000" y1="179.933594" x2="1018.500000" y2="173.933594" stroke="#00E62C" stroke-opacity="1.000000" stroke-width="1.000000"/>
		</g>
		<g style="mix-blend-mode:normal">
			<line id="直线 32" x1="1030.500000" y1="173.933594" x2="1024.500000" y2="179.933594" stroke="#00E62C" stroke-opacity="1.000000" stroke-width="1.000000"/>
		</g>
		<g style="mix-blend-mode:normal">
			<line id="直线 31" x1="1024.500000" y1="176.933594" x2="1018.500000" y2="170.933594" stroke="#00E62C" stroke-opacity="1.000000" stroke-width="1.000000"/>
		</g>
		<g style="mix-blend-mode:normal">
			<line id="直线 32" x1="1030.500000" y1="170.933594" x2="1024.500000" y2="176.933594" stroke="#00E62C" stroke-opacity="1.000000" stroke-width="1.000000"/>
		</g>
		<g style="mix-blend-mode:normal">
			<line id="直线 17" x1="1273.000000" y1="613.000000" x2="1273.000000" y2="605.000000" stroke="#FF0000" stroke-opacity="1.000000" stroke-width="1.000000"/>
		</g>
		<g style="mix-blend-mode:normal">
			<line id="直线 18" x1="1275.000000" y1="611.500000" x2="1275.000000" y2="606.500000" stroke="#FF0000" stroke-opacity="1.000000" stroke-width="1.000000"/>
		</g>
		<g style="mix-blend-mode:normal">
			<line id="直线 19" x1="1277.000000" y1="609.750000" x2="1277.000000" y2="608.250000" stroke="#FF0000" stroke-opacity="1.000000" stroke-width="1.000000"/>
		</g>
		<g style="mix-blend-mode:normal">
			<line id="直线 17" x1="1201.000000" y1="658.000000" x2="1201.000000" y2="666.000000" stroke="#FF0000" stroke-opacity="1.000000" stroke-width="1.000000"/>
		</g>
		<g style="mix-blend-mode:normal">
			<line id="直线 18" x1="1199.000000" y1="659.500000" x2="1199.000000" y2="664.500000" stroke="#FF0000" stroke-opacity="1.000000" stroke-width="1.000000"/>
		</g>
		<g style="mix-blend-mode:normal">
			<line id="直线 19" x1="1197.000000" y1="661.250000" x2="1197.000000" y2="662.750000" stroke="#FF0000" stroke-opacity="1.000000" stroke-width="1.000000"/>
		</g>
		<path id="直线 37" d="M1024 578L1104 578" stroke="#FF0000" stroke-opacity="1.000000" stroke-width="2.000000"/>
		<path id="直线 37" d="M1103 577L1103 294" stroke="#FF0000" stroke-opacity="1.000000" stroke-width="2.000000"/>
		<line id="直线 38" x1="1090.000000" y1="486.000000" x2="1113.000000" y2="486.000000" stroke="#FF0000" stroke-opacity="1.000000" stroke-width="2.000000"/>
		<ellipse id="椭圆 2" cx="1115.200195" cy="450.695312" rx="5.200000" ry="4.869565" fill="#C4C4C4" fill-opacity="0"/>
		<ellipse id="椭圆 2" cx="1115.200195" cy="450.695312" rx="4.700000" ry="4.369565" stroke="#FF0000" stroke-opacity="1.000000" stroke-width="1.000000"/>
		<line id="直线 39" x1="1115.200195" y1="458.000000" x2="1115.200195" y2="444.000000" stroke="#FF0000" stroke-opacity="1.000000" stroke-width="2.000000"/>
		<line id="直线 40" x1="1120.400391" y1="452.521484" x2="1121.700195" y2="448.869141" stroke="#FF0000" stroke-opacity="1.000000" stroke-width="1.000000"/>
		<line id="直线 40" x1="1121.700195" y1="452.521484" x2="1123.000000" y2="448.869141" stroke="#FF0000" stroke-opacity="1.000000" stroke-width="1.000000"/>
		<line id="直线 40" x1="1120.400391" y1="450.695312" x2="1123.000000" y2="450.695312" stroke="#FF0000" stroke-opacity="1.000000" stroke-width="1.000000"/>
		<ellipse id="椭圆 2" cx="1089.200195" cy="450.695312" rx="5.200000" ry="4.869565" fill="#C4C4C4" fill-opacity="0"/>
		<ellipse id="椭圆 2" cx="1089.200195" cy="450.695312" rx="4.700000" ry="4.369565" stroke="#FF0000" stroke-opacity="1.000000" stroke-width="1.000000"/>
		<line id="直线 39" x1="1089.200195" y1="458.000000" x2="1089.200195" y2="444.000000" stroke="#FF0000" stroke-opacity="1.000000" stroke-width="2.000000"/>
		<line id="直线 40" x1="1094.400391" y1="452.521484" x2="1095.700195" y2="448.869141" stroke="#FF0000" stroke-opacity="1.000000" stroke-width="1.000000"/>
		<line id="直线 40" x1="1095.700195" y1="452.521484" x2="1097.000000" y2="448.869141" stroke="#FF0000" stroke-opacity="1.000000" stroke-width="1.000000"/>
		<line id="直线 40" x1="1094.400391" y1="450.695312" x2="1097.000000" y2="450.695312" stroke="#FF0000" stroke-opacity="1.000000" stroke-width="1.000000"/>
		<line id="直线 41" x1="1103.000000" y1="382.000000" x2="1143.000000" y2="382.000000" stroke="#FF0000" stroke-opacity="1.000000" stroke-width="2.000000"/>
		<line id="直线 41" x1="1142.000000" y1="431.000000" x2="1142.000000" y2="382.000000" stroke="#FF0000" stroke-opacity="1.000000" stroke-width="2.000000"/>
		<rect id="矩形 12" x="1139.000000" y="398.000000" width="6.000000" height="18.000000" fill="#C4C4C4" fill-opacity="0"/>
		<rect id="矩形 12" x="1139.500000" y="398.500000" width="5.000000" height="17.000000" stroke="#FF0000" stroke-opacity="1.000000" stroke-width="1.000000"/>
		<rect id="矩形 12" x="1306.000000" y="442.000000" width="6.000000" height="18.000000" fill="#C4C4C4" fill-opacity="0"/>
		<rect id="矩形 12" x="1306.500000" y="442.500000" width="5.000000" height="17.000000" stroke="#FF0000" stroke-opacity="1.000000" stroke-width="1.000000"/>
		<path id="V" d="M1142.79 447L1141.29 447L1138.01 436.72L1139.37 436.72L1141.04 442.29C1141.4 443.5 1141.64 444.48 1142.03 445.68L1142.09 445.68C1142.47 444.48 1142.72 443.5 1143.07 442.29L1144.73 436.72L1146.05 436.72L1142.79 447Z" fill="#FF0000" fill-opacity="1.000000" fill-rule="evenodd"/>
		<path id="V" d="M1142.79 474L1141.29 474L1138.01 463.72L1139.37 463.72L1141.04 469.29C1141.4 470.5 1141.64 471.48 1142.03 472.68L1142.09 472.68C1142.47 471.48 1142.72 470.5 1143.07 469.29L1144.73 463.72L1146.05 463.72L1142.79 474Z" fill="#FF0000" fill-opacity="1.000000" fill-rule="evenodd"/>
		<line id="直线 42" x1="1103.000000" y1="294.000000" x2="1242.000000" y2="294.000000" stroke="#FF0000" stroke-opacity="1.000000" stroke-width="2.000000"/>
		<line id="直线 43" x1="1242.000000" y1="294.000000" x2="1242.000000" y2="328.000000" stroke="#FF0000" stroke-opacity="1.000000" stroke-width="2.000000"/>
		<line id="直线 43" x1="1232.000000" y1="328.000000" x2="1253.000000" y2="328.000000" stroke="#FF0000" stroke-opacity="1.000000" stroke-width="2.000000"/>
		<line id="直线 44" x1="1242.000000" y1="382.000000" x2="1242.000000" y2="357.000000" stroke="#FF0000" stroke-opacity="1.000000" stroke-width="2.000000"/>
		<path id="直线 44" d="M1242 357L1228 340" stroke="#FF0000" stroke-opacity="1.000000" stroke-width="2.000000"/>
		<line id="直线 44" x1="1242.000000" y1="499.000000" x2="1242.000000" y2="403.000000" stroke="#FF0000" stroke-opacity="1.000000" stroke-width="2.000000"/>
		<path id="直线 44" d="M1242 403L1228 386" stroke="#FF0000" stroke-opacity="1.000000" stroke-width="2.000000"/>
		<line id="直线 45" x1="1237.000000" y1="375.000000" x2="1248.000000" y2="388.000000" stroke="#FF0000" stroke-opacity="1.000000" stroke-width="1.000000"/>
		<line id="直线 45" x1="1237.000000" y1="375.000000" x2="1248.000000" y2="388.000000" stroke="#FF0000" stroke-opacity="1.000000" stroke-width="1.000000"/>
		<line id="直线 45" x1="1237.000000" y1="375.000000" x2="1248.000000" y2="388.000000" stroke="#FF0000" stroke-opacity="1.000000" stroke-width="1.000000"/>
		<line id="直线 45" x1="1248.000000" y1="375.000000" x2="1237.000000" y2="388.000000" stroke="#FF0000" stroke-opacity="1.000000" stroke-width="1.000000"/>
		<line id="直线 45" x1="1248.000000" y1="375.000000" x2="1237.000000" y2="388.000000" stroke="#FF0000" stroke-opacity="1.000000" stroke-width="1.000000"/>
		<line id="直线 45" x1="1248.000000" y1="375.000000" x2="1237.000000" y2="388.000000" stroke="#FF0000" stroke-opacity="1.000000" stroke-width="1.000000"/>
		<line id="直线 46" x1="1242.000000" y1="426.000000" x2="1309.000000" y2="426.000000" stroke="#FF0000" stroke-opacity="1.000000" stroke-width="2.000000"/>
		<line id="直线 47" x1="1309.000000" y1="425.000000" x2="1309.000000" y2="468.000000" stroke="#FF0000" stroke-opacity="1.000000" stroke-width="2.000000"/>
		<ellipse id="椭圆 3" cx="1309.500000" cy="478.500000" rx="10.000000" ry="10.500000" fill="#C4C4C4" fill-opacity="0"/>
		<ellipse id="椭圆 3" cx="1309.500000" cy="478.500000" rx="9.500000" ry="10.000000" stroke="#FF0000" stroke-opacity="1.000000" stroke-width="1.000000"/>
		<ellipse id="椭圆 3" cx="1309.500000" cy="478.500000" rx="9.500000" ry="10.000000" stroke="#FF0000" stroke-opacity="1.000000" stroke-width="1.000000"/>
		<ellipse id="椭圆 3" cx="1317.000000" cy="488.662109" rx="10.000000" ry="10.500000" fill="#C4C4C4" fill-opacity="0"/>
		<ellipse id="椭圆 3" cx="1317.000000" cy="488.662109" rx="9.500000" ry="10.000000" stroke="#FF0000" stroke-opacity="1.000000" stroke-width="1.000000"/>
		<ellipse id="椭圆 3" cx="1317.000000" cy="488.662109" rx="9.500000" ry="10.000000" stroke="#FF0000" stroke-opacity="1.000000" stroke-width="1.000000"/>
		<ellipse id="椭圆 3" cx="1302.000000" cy="489.337891" rx="10.000000" ry="10.500000" fill="#C4C4C4" fill-opacity="0"/>
		<ellipse id="椭圆 3" cx="1302.000000" cy="489.337891" rx="9.500000" ry="10.000000" stroke="#FF0000" stroke-opacity="1.000000" stroke-width="1.000000"/>
		<ellipse id="椭圆 3" cx="1302.000000" cy="489.337891" rx="9.500000" ry="10.000000" stroke="#FF0000" stroke-opacity="1.000000" stroke-width="1.000000"/>
		<ellipse id="椭圆 3" cx="1309.500000" cy="499.500000" rx="10.000000" ry="10.500000" fill="#C4C4C4" fill-opacity="0"/>
		<ellipse id="椭圆 3" cx="1309.500000" cy="499.500000" rx="9.500000" ry="10.000000" stroke="#FF0000" stroke-opacity="1.000000" stroke-width="1.000000"/>
		<ellipse id="椭圆 3" cx="1309.500000" cy="499.500000" rx="9.500000" ry="10.000000" stroke="#FF0000" stroke-opacity="1.000000" stroke-width="1.000000"/>
		<path id="Y" d="M1310.74 483.35L1309.63 483.35L1309.63 479.93L1306.99 474.54L1308.17 474.54L1309.3 477.04C1309.59 477.69 1309.86 478.3 1310.17 478.96L1310.22 478.96C1310.53 478.3 1310.83 477.69 1311.09 477.04L1312.23 474.54L1313.38 474.54L1310.74 479.93L1310.74 483.35Z" fill="#FF0000" fill-opacity="1.000000" fill-rule="evenodd"/>
		<path id="Y" d="M1303.24 496.9L1302.13 496.9L1302.13 493.48L1299.49 488.09L1300.67 488.09L1301.8 490.59C1302.09 491.23 1302.36 491.85 1302.67 492.51L1302.72 492.51C1303.03 491.85 1303.32 491.23 1303.59 490.59L1304.73 488.09L1305.88 488.09L1303.24 493.48L1303.24 496.9Z" fill="#FF0000" fill-opacity="1.000000" fill-rule="evenodd"/>
		<path id="Y" d="M1310.74 511.12L1309.63 511.12L1309.63 507.71L1306.99 502.32L1308.17 502.32L1309.3 504.81C1309.59 505.46 1309.86 506.07 1310.17 506.73L1310.22 506.73C1310.53 506.07 1310.83 505.46 1311.09 504.81L1312.23 502.32L1313.38 502.32L1310.74 507.71L1310.74 511.12Z" fill="#FF0000" fill-opacity="1.000000" fill-rule="evenodd"/>
		<line id="直线 48" x1="1312.000000" y1="479.000000" x2="1350.000000" y2="479.000000" stroke="#FF0000" stroke-opacity="1.000000" stroke-width="2.000000"/>
		<line id="直线 49" x1="1254.000000" y1="479.000000" x2="1262.000000" y2="465.000000" stroke="#FF0000" stroke-opacity="1.000000" stroke-width="1.000000"/>
		<line id="直线 49" x1="1230.000000" y1="449.000000" x2="1254.000000" y2="449.000000" stroke="#FF0000" stroke-opacity="1.000000" stroke-width="1.000000"/>
		<path id="多边形 3" d="M1242 513L1250.66 499.5L1233.34 499.5L1242 513Z" fill="#C4C4C4" fill-opacity="0" fill-rule="evenodd"/>
		<path id="多边形 3" d="M1250.66 499.5L1233.34 499.5L1242 513L1250.66 499.5ZM1248.82 500.5L1235.17 500.5L1242 511.14L1248.82 500.5Z" fill="#FF0000" fill-opacity="1.000000" fill-rule="evenodd"/>
		<path id="多边形 3" d="M1242 550L1233.34 563.5L1250.66 563.5L1242 550Z" fill="#C4C4C4" fill-opacity="0" fill-rule="evenodd"/>
		<path id="多边形 3" d="M1233.34 563.5L1250.66 563.5L1242 550L1233.34 563.5ZM1235.17 562.5L1248.82 562.5L1242 551.85L1235.17 562.5Z" fill="#FF0000" fill-opacity="1.000000" fill-rule="evenodd"/>
		<line id="直线 50" x1="1242.000000" y1="512.000000" x2="1242.000000" y2="550.000000" stroke="#FF0000" stroke-opacity="1.000000" stroke-width="2.000000"/>
		<line id="直线 51" x1="1242.000000" y1="562.000000" x2="1242.000000" y2="570.000000" stroke="#FF0000" stroke-opacity="1.000000" stroke-width="2.000000"/>
		<path id="直线 52" d="M1244 609C1244 609 1261.07 609 1272 609" stroke="#FF0000" stroke-opacity="1.000000" stroke-width="1.000000"/>
		<line id="直线 53" x1="1242.000000" y1="622.000000" x2="1242.000000" y2="705.000000" stroke="#FF0000" stroke-opacity="1.000000" stroke-width="2.000000"/>
		<line id="直线 54" x1="1243.000000" y1="645.000000" x2="1264.000000" y2="629.000000" stroke="#FF0000" stroke-opacity="1.000000" stroke-width="1.000000"/>
		<line id="直线 54" x1="1264.000000" y1="629.000000" x2="1264.000000" y2="610.000000" stroke="#FF0000" stroke-opacity="1.000000" stroke-width="1.000000"/>
		<line id="直线 55" x1="1201.000000" y1="662.000000" x2="1241.000000" y2="662.000000" stroke="#FF0000" stroke-opacity="1.000000" stroke-width="1.000000"/>
		<rect id="矩形 13" x="1226.000000" y="659.000000" width="13.000000" height="6.000000" fill="#C4C4C4" fill-opacity="0"/>
		<rect id="矩形 13" x="1226.500000" y="659.500000" width="12.000000" height="5.000000" stroke="#FF0000" stroke-opacity="1.000000" stroke-width="1.000000"/>
		<rect id="矩形 14" x="1208.000000" y="659.000000" width="11.000000" height="6.000000" fill="#C4C4C4" fill-opacity="0"/>
		<rect id="矩形 14" x="1208.500000" y="659.500000" width="10.000000" height="5.000000" stroke="#FF0000" stroke-opacity="1.000000" stroke-width="1.000000"/>
		<path id="箭头 1" d="M1211.21 662.5L1213.18 664.47C1213.38 664.67 1213.38 664.98 1213.18 665.18C1212.98 665.38 1212.67 665.38 1212.47 665.18L1209.65 662.35C1209.44 662.15 1209.44 661.84 1209.65 661.64L1212.47 658.81C1212.67 658.61 1212.98 658.61 1213.18 658.81C1213.38 659.01 1213.38 659.32 1213.18 659.52L1211.21 661.5L1219 661.5L1219 662.5L1211.21 662.5Z" fill="#FF0000" fill-opacity="1.000000" fill-rule="evenodd"/>
		<rect id="矩形 15" x="1235.000000" y="711.000000" width="15.000000" height="43.000000" fill="#FF0000" fill-opacity="1.000000"/>
		<line id="直线 56" x1="1242.000000" y1="761.000000" x2="1242.000000" y2="818.000000" stroke="#FF0000" stroke-opacity="1.000000" stroke-width="2.000000"/>
		<line id="直线 57" x1="41.000000" y1="820.000000" x2="2537.000000" y2="820.000000" stroke="#FF0000" stroke-opacity="1.000000" stroke-width="2.000000"/>
		<path id="HB12 储能接入柜2" d="M1008.5 30.61C1007.97 29.68 1007.34 28.74 1006.77 27.95L1008.23 27.34C1009.46 28.96 1010.8 31.11 1011.3 32.53L1009.74 33.23C1009.6 32.84 1009.43 32.44 1009.22 31.96C1002.67 32.44 1001.85 32.55 1001.32 32.75C1001.22 32.39 1000.96 31.5 1000.74 31.07C1001.1 30.97 1001.44 30.64 1001.85 30.13C1002.26 29.63 1003.57 27.73 1004.34 25.86L1006.17 26.44C1005.35 28.02 1004.27 29.65 1003.24 30.92L1008.5 30.61ZM975.93 35.63C977.82 33.2 979.45 29.53 980.51 25.89L982 26.29C981.52 28 980.92 29.68 980.22 31.28L980.22 47.77L978.66 47.77L978.66 34.45C978.06 35.51 977.46 36.44 976.83 37.28C976.67 36.9 976.21 36.03 975.93 35.63ZM998.17 33.16L998.17 34.79L993.27 34.79C992.53 35.7 991.72 36.54 990.87 37.31L997.14 37.31L997.14 47.65L995.53 47.65L995.53 46.52L990.35 46.52L990.35 47.75L988.81 47.75L988.81 39.03C988.24 39.44 987.64 39.88 987.03 40.26C986.82 39.92 986.22 39.23 985.86 38.89C987.76 37.81 989.53 36.42 991.11 34.79L986.58 34.79L986.58 33.16L990.4 33.16L990.4 30.16L987.27 30.16L987.27 28.62L990.4 28.62L990.4 25.91L992.03 25.91L992.03 28.62L994.81 28.62L994.81 29.86C995.41 28.86 995.94 27.83 996.4 26.72L997.98 27.16C997.04 29.34 995.89 31.35 994.57 33.16L998.17 33.16ZM1075.91 25.91L1077.64 25.91L1077.64 30.51L1080.64 30.51L1080.64 32.2L1077.64 32.2L1077.64 33.23C1078.32 34.16 1080.09 36.78 1080.47 37.41L1079.39 38.68C1079.07 37.96 1078.31 36.56 1077.64 35.39L1077.64 47.82L1075.91 47.82L1075.91 35.92C1075.12 38.65 1074.02 41.34 1072.89 43C1072.69 42.47 1072.26 41.72 1071.93 41.27C1073.43 39.27 1074.93 35.48 1075.65 32.2L1072.53 32.2L1072.53 30.51L1075.91 30.51L1075.91 25.91ZM1030.93 36.49L1031.19 38.13L1028.81 38.92L1028.81 45.71C1028.81 46.67 1028.57 47.15 1028.03 47.44C1027.48 47.72 1026.59 47.79 1025.19 47.77C1025.15 47.31 1024.93 46.57 1024.69 46.09C1025.66 46.14 1026.52 46.14 1026.76 46.11C1027.05 46.11 1027.17 46.02 1027.17 45.71L1027.17 39.44L1024.48 40.31L1024.02 38.6C1024.89 38.36 1025.99 38.03 1027.17 37.67L1027.17 32.39L1024.32 32.39L1024.32 30.73L1027.17 30.73L1027.17 25.93L1028.81 25.93L1028.81 30.73L1031.22 30.73L1031.22 32.39L1028.81 32.39L1028.81 37.16L1030.93 36.49ZM1022.08 32.7C1021.86 35.58 1021.33 36.4 1019.44 36.4L1015.36 36.4C1013.08 36.4 1012.48 35.84 1012.48 33.9L1012.48 25.98L1014.23 25.98L1014.23 29.99C1016.27 29.31 1018.41 28.43 1019.78 27.73L1020.98 29.03C1019.08 29.92 1016.54 30.75 1014.23 31.45L1014.23 33.88C1014.23 34.62 1014.43 34.79 1015.5 34.79L1019.3 34.79C1020.21 34.79 1020.37 34.38 1020.5 32C1020.85 32.31 1021.57 32.58 1022.08 32.7ZM1039.84 28.43L1045.41 28.43L1045.41 29.99L1032.5 29.99L1032.5 28.43L1037.97 28.43C1037.66 27.75 1037.25 26.99 1036.86 26.39L1038.52 26.1C1039 26.79 1039.5 27.71 1039.84 28.43ZM1058.19 31.86C1057.17 30.4 1055.94 29.05 1054.39 27.97L1055.46 26.44C1063.06 31.89 1062.35 40.86 1070.3 45.61C1069.96 46.07 1069.53 47.05 1069.41 47.58C1063.93 44.53 1062.28 39.01 1059.64 34.21C1057.81 40.45 1054.77 44.84 1049.94 47.68C1049.63 47.29 1048.81 46.57 1048.32 46.24C1053.68 43.48 1056.67 38.63 1058.19 31.86ZM1083.4 40.72L1083.4 45.16L1094.03 45.16L1094.03 46.91L1081.65 46.91L1081.65 27.16L1093.55 27.16L1093.55 28.91L1083.4 28.91L1083.4 32.6L1092.37 32.6L1092.37 40.72L1083.4 40.72ZM983.46 27.25C984.49 28.24 985.72 29.63 986.22 30.58L984.93 31.52C984.42 30.58 983.27 29.13 982.24 28.07L983.46 27.25ZM1107.37 46L1096.31 46L1096.31 44.7C1101.82 39.88 1104.37 36.37 1104.37 33.34C1104.37 31.33 1103.31 29.86 1101.14 29.86C1099.69 29.86 1098.44 30.75 1097.49 31.91L1096.22 30.66C1097.66 29.1 1099.17 28.07 1101.4 28.07C1104.54 28.07 1106.51 30.13 1106.51 33.27C1106.51 36.78 1103.75 40.35 1099.62 44.27C1100.54 44.2 1101.61 44.1 1102.5 44.1L1107.37 44.1L1107.37 46ZM914.63 46L912.4 46L912.4 28.38L914.63 28.38L914.63 35.77L922.83 35.77L922.83 28.38L925.04 28.38L925.04 46L922.83 46L922.83 37.69L914.63 37.69L914.63 46ZM935.48 46L929.87 46L929.87 28.38L935.1 28.38C938.68 28.38 941.15 29.6 941.15 32.7C941.15 34.45 940.21 35.99 938.58 36.51L938.58 36.64C940.67 37.04 942.16 38.44 942.16 40.83C942.16 44.29 939.42 46 935.48 46ZM968.67 46L957.61 46L957.61 44.7C962.77 39.56 965.67 36.49 965.67 33.68C965.67 31.74 964.62 30.34 962.44 30.34C961 30.34 959.75 31.26 958.79 32.39L957.52 31.16C958.96 29.6 960.47 28.57 962.7 28.57C965.84 28.57 967.81 30.56 967.81 33.58C967.81 36.8 964.88 40 960.83 44.27C961.74 44.2 962.8 44.1 963.71 44.1L968.67 44.1L968.67 46ZM955 46L945.34 46L945.34 44.17L949.26 44.17L949.26 31.55L946.14 31.55L946.14 30.13C947.7 29.86 948.83 29.46 949.79 28.89L951.47 28.89L951.47 44.17L955 44.17L955 46ZM932.1 30.16L932.1 35.89L934.72 35.89C937.74 35.89 938.96 34.76 938.96 32.99C938.96 30.92 937.55 30.16 934.81 30.16L932.1 30.16ZM994.65 30.16L992.03 30.16L992.03 33.16L992.55 33.16C993.3 32.22 994 31.21 994.65 30.16ZM1035.56 30.25C1036.29 31.19 1037.05 32.46 1037.37 33.25L1035.94 33.92C1035.64 33.08 1034.92 31.76 1034.22 30.8L1035.56 30.25ZM1041.4 34L1046.01 34L1046.01 35.55L1031.66 35.55L1031.66 34L1039.67 34C1040.34 32.96 1041.23 31.38 1041.68 30.27L1043.37 30.73C1042.72 31.83 1042.05 33.06 1041.4 34ZM985.14 33.54L985.14 43.98L987.44 42.64C987.54 43.11 987.76 43.74 987.87 44.07C984.49 46.16 983.94 46.57 983.58 46.98C983.44 46.57 983 45.83 982.72 45.51C983.05 45.27 983.58 44.68 983.58 43.67L983.58 35.24L981.23 35.24L981.23 33.54L985.14 33.54ZM1090.69 39.03L1090.69 34.28L1083.4 34.28L1083.4 39.03L1090.69 39.03ZM1001.75 34.41L1010.22 34.41L1010.22 45.78C1010.22 46.69 1010.05 47.17 1009.39 47.46C1008.74 47.75 1007.71 47.77 1006.19 47.77C1006.09 47.29 1005.85 46.59 1005.61 46.14C1006.74 46.19 1007.75 46.16 1008.06 46.14C1008.4 46.14 1008.47 46.07 1008.47 45.75L1008.47 42.95L1003.41 42.95L1003.41 47.82L1001.75 47.82L1001.75 34.41ZM1046.27 38.17L1046.27 39.71L1043.39 39.71C1042.89 41.51 1042.15 42.95 1041.02 44.07C1042.81 44.86 1044.47 45.71 1045.65 46.52L1044.47 47.89C1043.3 47.05 1041.54 46.11 1039.62 45.23C1037.73 46.5 1035.18 47.29 1031.75 47.79C1031.61 47.29 1031.27 46.65 1030.98 46.26C1033.93 45.95 1036.15 45.37 1037.8 44.46C1036.17 43.76 1034.46 43.16 1032.91 42.68C1033.53 41.86 1034.25 40.81 1034.94 39.71L1031.34 39.71L1031.34 38.17L1035.85 38.17C1036.32 37.31 1036.77 36.44 1037.1 35.65L1038.74 35.99C1038.43 36.68 1038.04 37.43 1037.63 38.17L1046.27 38.17ZM1008.47 37.96L1008.47 35.92L1003.41 35.92L1003.41 37.96L1008.47 37.96ZM1014.26 45.1C1014.26 45.9 1014.47 46.04 1015.57 46.04L1019.42 46.04C1020.4 46.04 1020.59 45.56 1020.71 42.9C1021.09 43.16 1021.79 43.45 1022.3 43.55C1022.08 46.79 1021.55 47.63 1019.56 47.63L1015.41 47.63C1013.1 47.63 1012.48 47.07 1012.48 45.1L1012.48 37.07L1014.26 37.07L1014.26 40.83C1016.42 40.14 1018.72 39.23 1020.06 38.34L1021.24 39.66C1019.42 40.74 1016.68 41.65 1014.26 42.32L1014.26 45.1ZM932.1 37.57L932.1 44.22L935.17 44.22C938.2 44.22 939.97 43.14 939.97 40.76C939.97 38.58 938.24 37.57 935.17 37.57L932.1 37.57ZM990.35 41.2L995.53 41.2L995.53 38.79L990.35 38.79L990.35 41.2ZM1003.41 39.37L1003.41 41.55L1008.47 41.55L1008.47 39.37L1003.41 39.37ZM1039.32 43.38C1040.37 42.42 1041.11 41.22 1041.56 39.71L1036.77 39.71C1036.31 40.5 1035.81 41.29 1035.32 41.94C1036.62 42.34 1037.99 42.83 1039.32 43.38ZM990.35 42.56L990.35 45.03L995.53 45.03L995.53 42.56L990.35 42.56Z" fill="#FFFDFD" fill-opacity="1.000000" fill-rule="evenodd"/>
	</g>
</svg>
