<svg xmlns="http://www.w3.org/2000/svg" xmlns:xlink="http://www.w3.org/1999/xlink" viewBox="0 0 1336 85" class="design-iconfont">
  <defs>
    <linearGradient x1="99.7115406%" y1="50.0382291%" x2="0%" y2="50.0426898%" id="wzfwjxw73__qf1k839nbd">
      <stop stop-color="#595E69" stop-opacity="0" offset="0%"/>
      <stop stop-color="#40454C" offset="9.72625968%"/>
      <stop stop-color="#3F444B" offset="20.7744366%"/>
      <stop stop-color="#3A3E47" offset="82.1233048%"/>
      <stop stop-color="#3A3D46" offset="91.469444%"/>
      <stop stop-color="#2D3038" stop-opacity="0" offset="100%"/>
      <stop stop-color="#2D3038" stop-opacity="0" offset="100%"/>
    </linearGradient>
    <linearGradient x1="1.33909991%" y1="0%" x2="98.9414488%" y2="0%" id="wzfwjxw73__m2i276piqe">
      <stop stop-color="#D4F1FF" stop-opacity="0" offset="0%"/>
      <stop stop-color="#79FF45" stop-opacity=".67012212" offset="31.8564248%"/>
      <stop stop-color="#30BCFF" offset="67.3186189%"/>
      <stop stop-color="#FFF" stop-opacity="0" offset="100%"/>
    </linearGradient>
    <filter x="-2.6%" y="-210%" width="105.3%" height="520%" filterUnits="objectBoundingBox" id="wzfwjxw73__vzfitf4q8a">
      <feGaussianBlur stdDeviation="10" in="SourceGraphic"/>
    </filter>
    <filter x="-.6%" y="-20.5%" width="101.3%" height="146.4%" filterUnits="objectBoundingBox" id="wzfwjxw73__ka1qga76vb">
      <feMorphology radius="2" operator="dilate" in="SourceAlpha" result="shadowSpreadOuter1"/>
      <feOffset dy="1" in="shadowSpreadOuter1" result="shadowOffsetOuter1"/>
      <feMorphology radius="2" in="SourceAlpha" result="shadowInner"/>
      <feOffset dy="1" in="shadowInner" result="shadowInner"/>
      <feComposite in="shadowOffsetOuter1" in2="shadowInner" operator="out" result="shadowOffsetOuter1"/>
      <feGaussianBlur stdDeviation="2" in="shadowOffsetOuter1" result="shadowBlurOuter1"/>
      <feColorMatrix values="0 0 0 0 0 0 0 0 0 0 0 0 0 0 0 0 0 0 0.517263986 0" in="shadowBlurOuter1"/>
    </filter>
    <path d="M0,3.77424241 L70.2875378,3.77424241 C76.543111,3.77424241 82.6309914,5.7970048 87.6426908,9.54067485 L109.506371,25.8725414 C118.838501,32.8435132 130.174555,36.6100363 141.822863,36.6100363 L1179.24122,36.6100363 C1191.46504,36.6100363 1203.32719,32.4626953 1212.88806,24.8461676 L1236.14652,6.31763318 C1241.28106,2.22727569 1247.65147,-7.34010826e-14 1254.21611,0 L1324,0 L1324,0" id="wzfwjxw73__dszgvcw5tc"/>
  </defs>
  <g fill="none" fill-rule="evenodd">
    <path fill="#0BA3EB" opacity=".21358817" filter="url(#wzfwjxw73__vzfitf4q8a)" d="M666.35879 35.714285759999996A568.453001 7.14285714 0 1 0 666.35879 50.00000004A568.453001 7.14285714 0 1 0 666.35879 35.714285759999996Z" transform="translate(6 5)"/>
    <g stroke-linecap="round" transform="translate(6 5)">
      <use fill="#000" filter="url(#wzfwjxw73__ka1qga76vb)" xlink:href="#wzfwjxw73__dszgvcw5tc"/>
      <use stroke="url(#wzfwjxw73__qf1k839nbd)" stroke-width="4" xlink:href="#wzfwjxw73__dszgvcw5tc"/>
    </g>
    <path stroke="url(#wzfwjxw73__m2i276piqe)" stroke-width="4" stroke-linecap="round" d="M310.249829 36.7346939L1014.02425 35.7142857" transform="translate(6 5)"/>
  </g>
</svg>
