<svg xmlns="http://www.w3.org/2000/svg" xmlns:xlink="http://www.w3.org/1999/xlink" viewBox="0 0 113 40" class="design-iconfont">
  <defs>
    <path id="giaa5hznh__kkphtnbkta" d="M0 0H113V40H0z"/>
  </defs>
  <g fill="none" fill-rule="evenodd">
    <mask id="giaa5hznh__eh2ercpowb" fill="#fff">
      <use xlink:href="#giaa5hznh__kkphtnbkta"/>
    </mask>
    <use fill-opacity="0" fill="#D8D8D8" xlink:href="#giaa5hznh__kkphtnbkta"/>
    <g mask="url(#giaa5hznh__eh2ercpowb)">
      <path d="M37.7338449,25.8813973 C38.3648235,25.8813973 38.7224874,25.6574214 38.7944468,25.1950066 C38.8629601,24.7543268 38.5744659,24.5808505 37.9361027,24.5808505 L37.2831343,24.5808505 L37.0808765,25.8813973 L37.7338449,25.8813973 Z M37.9744209,23.6271755 C38.5320451,23.6271755 38.81857,23.3886558 38.8759243,23.0202106 C38.9354939,22.6372216 38.7033693,22.4782892 38.1531298,22.4782892 L37.6101108,22.4782892 L37.4314019,23.6271755 L37.9744209,23.6271755 Z M36.4496518,21.495688 L38.3573567,21.495688 C39.4872924,21.495688 40.3436673,21.7918985 40.1829278,22.8251609 C40.1087529,23.301958 39.7563403,23.8222252 39.290286,23.9883487 L39.2858552,24.0172749 C39.8136125,24.161825 40.1688969,24.5663875 40.0576346,25.2817043 C39.8868027,26.3799294 38.8638626,26.8712704 37.6752599,26.8712704 L35.6134617,26.8712704 L36.4496518,21.495688 Z M42.1517038,23.9594953 L42.7387026,23.9594953 C43.3623785,23.9594953 43.7341553,23.6920493 43.812761,23.1864069 C43.8914487,22.6806028 43.5871184,22.5143984 42.9634425,22.5143984 L42.3764438,22.5143984 L42.1517038,23.9594953 Z M43.3349732,26.8712624 L42.6242403,24.9782138 L41.9932618,24.9782138 L41.6987778,26.8712624 L40.3854563,26.8712624 L41.2215644,21.4956799 L43.2246135,21.4956799 C44.3912263,21.4956799 45.2990477,21.8857793 45.0967899,23.1864069 C44.9742866,23.9739584 44.5214426,24.4796817 43.9159821,24.7397748 L44.80247,26.8712624 L43.3349732,26.8712624 Z M45.5004767,24.3279808 L47.5769622,24.3279808 L47.4364895,25.2311562 L45.360004,25.2311562 L45.5004767,24.3279808 Z M51.0338466,24.3568666 C51.097929,23.9449514 50.961641,23.6415497 50.4848378,23.6415497 C50.1252867,23.6415497 49.7749254,23.8655256 49.6104115,24.3568666 L51.0338466,24.3568666 Z M48.2984849,24.8192814 C48.5064042,23.4826174 49.6030269,22.6588677 50.6155464,22.6588677 C51.8188364,22.6588677 52.2721727,23.5187347 52.0968279,24.645886 C52.0619559,24.8698618 51.9966427,25.1011096 51.9527449,25.1949985 L49.5021031,25.1949985 C49.5318059,25.758655 49.8920134,25.989822 50.4203451,25.989822 C50.7211471,25.989822 51.0134977,25.9031242 51.3412947,25.729648 L51.6539122,26.5028172 C51.173827,26.8062189 50.5756692,26.9724232 50.0840967,26.9724232 C48.8881093,26.9724232 48.0872015,26.1776805 48.2984849,24.8192814 L48.2984849,24.8192814 Z M53.5948481,22.7600528 L54.658732,22.7600528 L54.6669372,23.273048 L54.6963118,23.273048 C55.0928682,22.9406394 55.5622867,22.658892 56.1272135,22.658892 C57.0370862,22.658892 57.3259906,23.3019742 57.1663178,24.3279647 L56.770746,26.8712866 L55.4647271,26.8712866 L55.8356013,24.486897 C55.9232327,23.9233214 55.7949857,23.7571979 55.4648091,23.7571979 C55.1713098,23.7571979 54.9749597,23.8872041 54.6811322,24.125643 L54.2540524,26.8712866 L52.9553362,26.8712866 L53.5948481,22.7600528 Z M60.4407271,24.3568666 C60.5047275,23.9449514 60.3685215,23.6415497 59.8916363,23.6415497 C59.5320852,23.6415497 59.1817239,23.8655256 59.01721,24.3568666 L60.4407271,24.3568666 Z M57.7053655,24.8192814 C57.9132027,23.4826174 59.0099074,22.6588677 60.0224269,22.6588677 C61.2257169,22.6588677 61.6789712,23.5187347 61.5036264,24.645886 C61.4688365,24.8698618 61.4035232,25.1011096 61.3595434,25.1949985 L58.9089016,25.1949985 C58.9386044,25.758655 59.2988939,25.989822 59.8271436,25.989822 C60.1279456,25.989822 60.4202962,25.9031242 60.7480932,25.729648 L61.0607927,26.5028172 C60.5807075,26.8062189 59.9825497,26.9724232 59.4908952,26.9724232 C58.2949899,26.9724232 57.494082,26.1776805 57.7053655,24.8192814 L57.7053655,24.8192814 Z M68.0021144,22.6588758 C68.2443314,22.6588758 68.4661175,22.6950739 68.6467956,22.7600366 L70.1802622,22.7600366 L70.0352766,23.6920574 L69.3896108,23.6920574 C69.4376931,23.8077621 69.4597651,23.9956207 69.429488,24.1906704 C69.2800716,25.1516981 68.4737483,25.5707237 67.5492704,25.5707237 C67.4098644,25.5707237 67.2444479,25.5490695 67.068857,25.4984891 C66.9599742,25.585106 66.9132047,25.6502303 66.8917892,25.7875084 C66.8626608,25.975367 67.0179028,26.0620647 67.4654135,26.0620647 L68.1257665,26.0620647 C69.1530554,26.0620647 69.6843409,26.3727383 69.5686479,27.1169813 C69.4338367,27.9839586 68.4284557,28.5981147 66.9756461,28.5981147 C66.0144911,28.5981147 65.2680656,28.3019042 65.3827741,27.5648523 C65.4355334,27.2253333 65.6837402,26.9506962 66.1029429,26.7556465 L66.1085225,26.7195292 C65.9108596,26.5750599 65.783269,26.3582752 65.8371771,26.0114843 C65.8821415,25.7224649 66.1178764,25.4334456 66.4185142,25.245587 L66.422945,25.2167416 C66.1609536,25.01442 65.9490958,24.631431 66.0231886,24.154553 C66.1794973,23.1502168 67.0996264,22.6588758 68.0021144,22.6588758 Z M66.7408138,26.9941663 C66.5908231,27.1097094 66.506802,27.2253333 66.4854685,27.3626114 C66.4405041,27.6516308 66.7701884,27.7961001 67.3058227,27.7961001 C67.841457,27.7961001 68.2459725,27.6009696 68.286424,27.3409572 C68.3246602,27.0952463 68.1123921,27.0447467 67.7235485,27.0447467 L67.3273202,27.0447467 C67.0265183,27.0447467 66.8672557,27.0302836 66.7408138,26.9941663 Z M65.3063674,22.658892 C65.555805,22.658892 65.6896315,22.6950093 65.7991707,22.7455897 L65.4071271,23.8510868 C65.2659159,23.8149694 65.1457099,23.7860433 64.9623241,23.7860433 C64.6540554,23.7860433 64.2495399,23.9810929 63.9451277,24.5230144 L63.579915,26.8712866 L62.2811987,26.8712866 L62.9207106,22.7600528 L63.9845946,22.7600528 L63.9613739,23.4753697 L63.9907485,23.4753697 C64.3843511,22.9262571 64.8881493,22.658892 65.3063674,22.658892 Z M67.868452,23.5187428 C67.56765,23.5187428 67.306397,23.7354467 67.2412479,24.154553 C67.174868,24.5808505 67.3686744,24.7976353 67.6695584,24.7976353 C67.977663,24.7976353 68.2314493,24.5808505 68.2978292,24.154553 C68.3629784,23.7354467 68.1765566,23.5187428 67.868452,23.5187428 Z M70.2866177,28.3741873 L70.6730818,27.3987772 C70.7442207,27.4131595 70.8486727,27.4493576 70.944099,27.4493576 C71.3402452,27.4493576 71.5772109,27.247036 71.7175195,26.9580166 L71.8088432,26.7484231 L70.8296367,22.7600851 L72.1430402,22.7600851 L72.4353909,24.4652751 C72.5016888,24.8409114 72.5302428,25.2239005 72.5773405,25.6285437 L72.6140177,25.6285437 C72.755393,25.2382827 72.9103889,24.8553745 73.0664515,24.4652751 L73.8159949,22.7600851 L75.055962,22.7600851 L72.9845637,26.8785101 C72.4096266,27.9334267 71.8811308,28.4536131 70.8905191,28.4536131 C70.6190917,28.4536131 70.454824,28.4246869 70.2866177,28.3741873 M43.580784,6.03307926 C43.5449274,6.25972151 43.0967603,9.03978561 42.2362829,14.3823211 L41.3221435,20.1013817 L38.7677882,20.1013817 C39.0246924,18.5362978 39.1590933,17.6891163 39.1711549,17.5595949 C37.0259921,18.4774758 35.9117283,18.9540305 35.8281175,18.9894207 C36.079032,17.4183576 36.2103969,16.6093943 36.2224585,16.5622074 C36.2282842,16.5622074 37.3487019,16.0622209 39.5833833,15.0618438 C39.6550966,14.5852891 39.8760621,13.2026502 40.2466082,10.9137655 L37.0649667,10.9137655 C37.0649667,10.8931617 37.1813982,10.1723505 37.4145074,8.74252471 L40.5782617,8.74252471 C40.596231,8.74252471 40.623062,8.61332651 40.6589186,8.35428371 C40.6648263,8.33666945 41.1189832,6.0418056 41.1189832,6.0418056 L43.580784,6.03307926 Z M59.796407,6.11253737 C59.2748035,9.84886208 59.0139608,11.7345579 59.0139608,11.7698672 C59.0217557,11.7757656 60.5542991,13.8564505 62.0848939,15.9356608 L62.4514175,16.4335799 C63.8502886,18.3340113 65.1441346,20.0926069 65.1441346,20.0926069 L65.1284627,20.101414 L62.3348442,20.101414 C62.3292407,20.0939489 62.2789205,20.0306485 62.192638,19.9224294 L62.0373368,19.7277762 C60.9868445,18.4116992 57.518112,14.074427 57.4958379,14.0291793 C57.488002,14.0351585 56.3830306,15.5532172 55.2793618,17.069781 L54.9493986,17.5231918 C54.6216714,17.9735305 54.3039474,18.4101126 54.0258844,18.7920714 L53.7621402,19.154309 C53.4310375,19.6089792 53.1880183,19.9423243 53.1033825,20.0574755 L53.070701,20.101414 L50.1988872,20.101414 C50.5014533,19.7125104 50.8046602,19.3243236 51.1053541,18.9334653 L51.4647788,18.4635 C54.0291174,15.0911965 56.3142917,11.6816343 56.3142917,11.6816343 C56.7732896,8.41604676 57.1078969,6.1212637 57.1078969,6.1212637 L59.796407,6.11253737 Z M47.5352717,6.03307926 C47.4874355,6.34504565 47.2633519,7.72469498 46.8631031,10.1723505 C49.005148,9.20744432 50.2958232,8.62504242 50.7438262,8.42490237 C50.7378364,8.51612486 50.6034355,9.34585365 50.3405415,10.9225727 C48.4105185,11.8112042 47.1169715,12.4083116 46.4598184,12.714218 C45.9400122,15.9728281 45.6580275,17.7277909 45.6140658,17.9791724 L45.6083666,18.0097282 L47.3022445,18.0097282 C47.4815277,16.8741738 47.5711283,16.2974279 47.5711283,16.2798136 L49.8834308,16.2798136 C49.877441,16.332818 49.7369683,17.2124808 49.4622587,18.918802 C49.4443715,18.918802 49.3009449,19.0393547 49.032061,19.2806216 L48.1716656,20.0131488 L43.8606628,20.0131488 C43.800847,19.9425301 43.4871629,19.5747313 42.9196104,18.9099141 L44.1922342,10.9490748 C44.5174603,8.95527485 44.8163538,7.13425103 44.9381306,6.39299125 L44.9657816,6.2247092 C44.9853107,6.1058795 44.9958498,6.0418056 44.9958498,6.0418056 L47.5352717,6.03307926 Z M93.4797226,6.11253737 L95.7385272,6.11253737 L95.7564145,6.1212637 L95.4606998,7.97480137 L99.547619,6.15673463 L99.547619,6.16546096 C99.5296497,6.27138894 99.4071463,7.02750949 99.180191,8.43366102 C96.670636,9.58109295 95.3052116,10.2076921 95.0843281,10.3136201 L94.9857018,10.896022 L97.1635213,10.896022 C97.1635213,10.872671 97.2143113,10.5402623 97.3159735,9.89879609 L99.4579364,9.89879609 C99.3025303,10.8872956 99.207104,11.4844838 99.1711653,11.6903606 L97.8805721,12.7847882 L93.4441121,12.7847882 C92.8884571,12.137666 92.5776448,11.7698672 92.5119213,11.6816343 L92.5119213,11.6727464 L93.4797226,6.11253737 Z M92.2520632,13.2614237 L94.609248,13.2614237 L94.609248,13.2702308 L94.3134512,15.1147998 L94.3224769,15.1147998 C97.0350281,13.9675294 98.3973345,13.3937731 98.4093962,13.3937731 L98.4093962,13.4027418 C98.3973345,13.4851572 98.2749132,14.2498424 98.0419681,15.6972824 C97.8985415,15.7561852 96.5331171,16.3093377 93.9460231,17.3565784 L93.8025965,18.2656522 L95.9087848,18.2656522 L96.0970117,17.100606 L98.3376829,17.100606 C98.3316931,17.1654879 98.2301129,17.8008942 98.0329424,19.0069865 C97.2143113,19.7012147 96.7810777,20.0661047 96.7333236,20.101414 L92.2789762,20.101414 C92.2191604,20.0424304 91.9621741,19.7424224 91.5081814,19.2011474 L91.3288981,19.0069865 C91.4423758,18.3481483 91.7501522,16.4329608 92.2520632,13.2614237 L92.2520632,13.2614237 Z M86.7311242,12.2906192 L86.7311242,12.2994263 C86.7311242,12.3113038 86.6892778,12.5788306 86.605667,13.1025721 L89.1241656,13.1025721 C89.1957969,12.6378141 89.2375613,12.3671362 89.2495408,12.2906192 L86.7311242,12.2906192 Z M86.3098701,14.8852487 C86.2619519,15.2267069 86.2292132,15.4531875 86.2113259,15.5649331 L88.7118552,15.5649331 C88.7237527,15.5649331 88.744676,15.450198 88.7746249,15.2208085 C88.7805326,15.2208085 88.8014558,15.109063 88.8373125,14.8852487 L86.3098701,14.8852487 Z M86.7872477,6.11253737 L89.3123105,6.11253737 L89.3123105,6.1212637 C89.1747916,6.3155862 88.6700088,7.00690565 87.7976338,8.19530286 L89.6170509,8.19530286 C89.4975014,7.43643513 89.4317779,7.03340785 89.4198804,6.98622101 L91.7233213,6.98622101 C91.7351367,6.98622101 91.7620497,7.16276765 91.8038961,7.51586092 L92.2520632,10.4282744 L90.038305,10.4282744 L89.9396787,10.1546877 L85.0371643,10.1546877 C85.0251847,10.1430526 84.9146609,9.9106736 84.7055108,9.4574699 C84.6338796,9.33990681 84.5859613,9.23979639 84.5621663,9.15746182 L86.7872477,6.11253737 Z M84.6428232,10.631404 L91.8756094,10.631404 C91.1048967,15.3501683 90.6865144,17.9539282 90.620873,18.4421988 C90.5610572,18.7834146 90.5281544,18.9717579 90.5222467,19.0069865 L89.2317356,20.101414 L86.8116991,20.101414 L86.7938938,20.0926069 L87.107578,18.1950335 L88.2906012,18.1950335 C88.3024987,18.1950335 88.320386,18.0950847 88.3443451,17.8949447 C88.3502528,17.8772496 88.3831556,17.695047 88.4429714,17.3476905 L85.9334164,17.3476905 C85.9214368,17.3476905 85.9005956,17.4625872 85.8707288,17.6919766 C85.8646569,17.7037733 85.7332099,18.5069999 85.4763057,20.101414 L83.1461159,20.101414 L83.1281466,20.0926069 C83.9048491,15.2855288 84.3410366,12.5729322 84.4367091,11.955221 C84.5382072,11.3433273 84.6069666,10.9019203 84.6428232,10.631404 L84.6428232,10.631404 Z M71.3282492,17.6603113 C71.1722687,18.9843707 71.0884938,19.6520967 71.0764322,19.6642167 L65.5912678,20.2662528 L65.8429207,18.2623475 C68.6755548,17.9528859 70.4173555,17.7619861 71.0684652,17.6895547 L71.2037903,17.6744457 C71.2609823,17.6680285 71.3024685,17.6633171 71.3282492,17.6603113 Z M82.7934326,6.19412858 C82.2179211,9.83656441 81.9301653,11.6665895 81.9301653,11.6846077 L82.7484682,11.6846077 L82.4606304,13.5177839 L78.8908017,13.5177839 C78.82475,13.9671093 78.5340404,15.8033559 78.0185908,19.0261197 L76.7326746,20.1314552 L74.1878373,20.1314552 C74.2656224,19.6072289 74.3736026,18.9304533 74.5114497,18.0915942 L75.6086467,18.0915942 L76.3369387,13.5177839 L72.092644,13.5177839 L72.371292,11.6846077 L79.4842825,11.6846077 C79.5742113,11.0915403 79.6191757,10.7860379 79.6191757,10.7680196 L73.3425394,10.7680196 C73.5102534,9.68377279 73.606254,9.07276792 73.6302952,8.93492418 L79.9518138,8.93492418 L80.0867891,8.01833607 L73.3514831,8.01833607 C73.3634626,7.93446632 73.4594633,7.32645102 73.6393209,6.19412858 L82.7934326,6.19412858 Z M74.8532202,13.9131514 L75.2861256,16.1571925 L73.342564,20.0775782 L71.1754113,20.0775782 L73.1115061,16.1103289 L72.6591544,13.9131514 L74.8532202,13.9131514 Z M81.9930909,13.9131514 L80.8488782,16.1197016 L81.5255596,20.0775782 L79.3584068,20.0775782 L78.6749151,16.1290743 L79.7990251,13.9131514 L81.9930909,13.9131514 Z M72.344379,6.16720623 L69.6017147,10.4265453 L70.1053488,10.4265453 L70.3840789,10.0492122 L72.8119923,10.0492122 C72.7401149,10.1600689 71.6609694,11.7506046 69.5748017,14.8297072 C70.9714879,14.7369496 71.6909183,14.6859651 71.7329288,14.6859651 L71.4361474,16.6628835 L71.418178,16.6718522 L66.733183,17.0762531 C66.733183,17.0822322 66.7301471,17.0852218 66.7241573,17.0852218 C66.70627,17.0434485 66.5322381,16.6689434 66.2026359,15.9620297 C66.3824935,15.7104204 67.2217195,14.4914003 68.7203961,12.304646 L67.2188477,12.304646 C67.2007963,12.2807293 66.985,11.906305 66.5712947,11.1813731 C66.6132232,11.1155216 67.545414,9.67777748 69.3679491,6.86806001 L69.8393368,6.16720623 L72.344379,6.16720623 Z" fill="#000000" transform="translate(6.277778 4.545455)"/>
      <path d="M7.04989268,0 C3.15636955,0 0,3.10819036 0,6.94236311 L0,6.94236311 L0,28.478063 C0,29.3139325 0.684148105,29.9923241 1.53108703,30 L1.53108703,30 L11.0842988,30 C11.4173471,29.9966064 11.7360364,29.864661 11.9716893,29.6322012 L11.9716893,29.6322012 L28.1866065,13.634329 C28.3562897,13.4669127 28.4515519,13.240028 28.4515519,13.0035282 L28.4515519,13.0035282 L28.4515519,1.52201783 C28.4515519,0.681381131 27.7596088,0 26.9060237,0 L26.9060237,0 L7.04989268,0 Z" fill="#E60013" transform="translate(6.277778 4.545455)"/>
      <path d="M15.7229179,5.45454545 C18.3492777,5.45454545 20.510501,7.64288118 20.6224308,10.3621817 L20.6269841,10.5837964 L20.6269841,10.9515488 C20.6269841,11.9744439 20.3255725,12.9235627 19.8104695,13.707157 L19.6647547,13.9166917 L16.0771358,13.9166917 C16.0771358,13.9166917 16.5627924,13.5604381 17.1525919,13.0004814 L17.2804325,12.8774284 C17.7560406,12.4132226 18.0281256,11.7677668 18.0368667,11.0926822 L18.0326765,10.9079475 L17.9965368,10.2870346 C17.9272439,9.09789539 17.0229558,8.15927344 15.9024492,8.07990204 L15.7483707,8.07446177 L8.58169888,8.07446177 C7.94560872,8.07446177 7.42237543,8.58013973 7.35945599,9.22808415 L7.35311258,9.35946225 L7.35311258,19.9043161 C7.35311258,20.4636866 7.75768421,20.9241268 8.27750867,20.9830327 L8.39055826,20.9893992 L9.15479441,20.9893992 L9.15479441,11.2392661 C9.15479441,10.6355377 9.59141625,10.1385442 10.1524583,10.0749616 L10.2744722,10.0680897 L14.550132,10.0680897 C15.10063,10.0680897 15.5539114,10.5037255 15.6119023,11.0634443 L15.6181699,11.1851698 L15.6181699,11.2302216 C15.6181699,11.7424299 15.4090288,12.2272002 15.0481365,12.5654773 L14.9222974,12.6726474 L13.8490383,13.5014983 C13.5497583,13.7326814 13.196536,13.8725907 12.828364,13.9078467 L12.6432127,13.9166917 L11.3283969,13.9166917 L11.3283969,23.6363636 L9.15479441,23.6363636 L9.15479441,23.6092302 L6.14394218,23.6092302 C5.22723406,23.6092302 4.48412698,22.8320864 4.48412698,21.8733703 L4.48412698,7.93307758 C4.48412698,6.61895726 5.46196499,5.54373275 6.69804365,5.45981738 L6.85384643,5.45454545 L15.7229179,5.45454545 Z M13.3168956,18.3424347 L17.8085778,23.0401951 C17.1900244,23.3786146 16.4959264,23.5864462 15.7595727,23.628453 L15.4815244,23.6363636 L13.3115114,23.6363636 L13.3115114,20.700658 C13.3115114,20.700658 13.3293296,19.8277731 13.3231669,18.8789222 L13.3196502,18.5210987 L13.3168956,18.3424347 Z M20.3217139,16.54369 C20.4204576,16.9086097 20.4825494,17.2895842 20.5034363,17.6821137 L20.5113045,17.9786072 L20.5113045,18.3757116 C20.5113045,19.5850102 20.1209798,20.6987395 19.4652166,21.5872353 L19.3092315,21.7882155 L14.2948699,16.54369 L20.3217139,16.54369 Z" fill="#FFF" transform="translate(6.277778 4.545455)"/>
    </g>
  </g>
</svg>
