<svg width="47.000000" height="75.000000" viewBox="0 0 47 75" fill="none" xmlns="http://www.w3.org/2000/svg" xmlns:xlink="http://www.w3.org/1999/xlink">
	<desc>
			Created with Pixso.
	</desc>
	<defs/>
	<g style="mix-blend-mode:normal">
		<circle id="Oval" r="22.000000" transform="matrix(0 1 -1 0 23.5 23.5)" fill="#2C407A" fill-opacity="0"/>
		<circle id="Oval" r="22.000000" transform="matrix(0 1 -1 0 23.5 23.5)" stroke="#01C5C5" stroke-opacity="1.000000" stroke-width="3.000000"/>
	</g>
	<g style="mix-blend-mode:normal">
		<circle id="Oval Copy 4" r="22.000000" transform="matrix(0 1 -1 0 23.5 51.5)" fill="#2C407A" fill-opacity="0"/>
		<circle id="Oval Copy 4" r="22.000000" transform="matrix(0 1 -1 0 23.5 51.5)" stroke="#01C5C5" stroke-opacity="1.000000" stroke-width="3.000000"/>
	</g>
	<g style="mix-blend-mode:normal">
		<path id="多边形 1" d="M25.19 11.42L29.08 17.65C29.91 18.98 28.96 20.71 27.39 20.71L19.6 20.71C18.03 20.71 17.08 18.98 17.91 17.65L21.8 11.42C22.58 10.17 24.41 10.17 25.19 11.42Z" fill="#FFFFFF" fill-opacity="1.000000" fill-rule="evenodd"/>
		<path id="多边形 1" d="M25.19 11.42L29.08 17.65C29.91 18.98 28.96 20.71 27.39 20.71L19.6 20.71C18.03 20.71 17.08 18.98 17.91 17.65L21.8 11.42C22.58 10.17 24.41 10.17 25.19 11.42ZM24.34 11.95L28.23 18.18C28.3 18.29 28.35 18.4 28.37 18.52C28.38 18.58 28.39 18.64 28.39 18.69C28.39 18.76 28.38 18.83 28.37 18.89C28.35 18.99 28.31 19.09 28.26 19.19C28.21 19.29 28.14 19.37 28.06 19.44C28.02 19.49 27.96 19.53 27.91 19.56C27.86 19.59 27.81 19.62 27.76 19.64C27.64 19.68 27.52 19.71 27.39 19.71L19.6 19.71C19.47 19.71 19.35 19.68 19.23 19.64C19.18 19.62 19.13 19.59 19.08 19.56C19.03 19.53 18.97 19.49 18.93 19.44C18.85 19.37 18.78 19.29 18.73 19.19C18.68 19.09 18.64 18.99 18.62 18.89C18.61 18.83 18.6 18.76 18.6 18.69C18.6 18.64 18.61 18.58 18.62 18.52C18.64 18.4 18.69 18.29 18.76 18.18L22.65 11.95C22.71 11.85 22.79 11.76 22.88 11.69C22.92 11.66 22.97 11.62 23.02 11.6C23.08 11.57 23.14 11.54 23.2 11.52C23.29 11.49 23.39 11.48 23.5 11.48C23.6 11.48 23.7 11.49 23.79 11.52C23.85 11.54 23.91 11.57 23.97 11.6C24.02 11.62 24.07 11.66 24.11 11.69C24.2 11.76 24.28 11.85 24.34 11.95Z" fill="#343333" fill-opacity="1.000000" fill-rule="evenodd"/>
	</g>
	<g style="mix-blend-mode:normal">
		<path id="Y" d="M24.05 61.63L22.84 61.63L22.84 57.92L19.98 52.09L21.27 52.09L22.49 54.79C22.8 55.49 23.09 56.16 23.43 56.87L23.48 56.87C23.82 56.16 24.14 55.49 24.43 54.79L25.66 52.09L26.91 52.09L24.05 57.92L24.05 61.63Z" fill="#000000" fill-opacity="1.000000" fill-rule="evenodd"/>
	</g>
</svg>
