<svg width="10.000000" height="49.765625" viewBox="0 0 10 49.7656" fill="none" xmlns="http://www.w3.org/2000/svg" xmlns:xlink="http://www.w3.org/1999/xlink">
	<desc>
			Created with Pixso.
	</desc>
	<defs/>
	<g style="mix-blend-mode:normal">
		<line id="直线 17" x1="1.000000" y1="45.265625" x2="9.000000" y2="45.265625" stroke="#707070" stroke-opacity="1.000000" stroke-width="1.000000"/>
	</g>
	<g style="mix-blend-mode:normal">
		<line id="直线 18" x1="2.500000" y1="47.265625" x2="7.500000" y2="47.265625" stroke="#707070" stroke-opacity="1.000000" stroke-width="1.000000"/>
	</g>
	<g style="mix-blend-mode:normal">
		<line id="直线 19" x1="4.250000" y1="49.265625" x2="5.750000" y2="49.265625" stroke="#707070" stroke-opacity="1.000000" stroke-width="1.000000"/>
	</g>
	<g style="mix-blend-mode:normal">
		<rect id="矩形 3" y="6.265625" rx="1.000000" width="10.000000" height="34.000000" fill="#FFFFFF" fill-opacity="1.000000"/>
		<rect id="矩形 3" x="0.500000" y="6.765625" rx="1.000000" width="9.000000" height="33.000000" stroke="#707070" stroke-opacity="1.000000" stroke-width="1.000000"/>
	</g>
	<g style="mix-blend-mode:normal">
		<line id="直线 29" x1="5.000000" y1="10.265625" x2="5.000000" y2="29.265625" stroke="#707070" stroke-opacity="1.000000" stroke-width="1.000000"/>
	</g>
	<g style="mix-blend-mode:normal">
		<path id="多边形 2" d="M4.5 35.26L2 29.26L7 29.26L4.5 35.26Z" fill="#FFFFFF" fill-opacity="1.000000" fill-rule="evenodd"/>
		<path id="多边形 2" d="M2.41 30.26L2 29.26L7 29.26L6.58 30.26L5.04 33.96L4.5 35.26L2.41 30.26ZM3.5 30.26L5.5 30.26L4.5 32.66L3.5 30.26Z" fill="#707070" fill-opacity="1.000000" fill-rule="evenodd"/>
	</g>
	<g style="mix-blend-mode:normal">
		<path id="路径 2" d="M5 6.02L5 0" stroke="#707070" stroke-opacity="1.000000" stroke-width="1.000000"/>
	</g>
	<g style="mix-blend-mode:normal">
		<path id="路径 3" d="M5 43.77L5 40.26" stroke="#707070" stroke-opacity="1.000000" stroke-width="1.000000"/>
	</g>
</svg>
